<svg width="54" height="81" viewBox="0 0 54 81" fill="none" xmlns="http://www.w3.org/2000/svg">
<path fill-rule="evenodd" clip-rule="evenodd" d="M46.4328 0.170312C46.0107 0.321082 44.4729 1.67799 43.0255 3.15554C38.8039 7.43742 34.733 8.97529 32.0493 7.34697C30.0893 6.17096 27.7072 3.99987 27.1946 2.94448C25.9583 0.321068 24.8424 1.2257 23.9981 5.6282C22.3396 14.192 17.2739 18.2628 9.70519 17.2074C5.39316 16.6043 5.0614 16.8154 7.08173 19.1674C13.3538 26.4948 10.1575 38.7073 0.960503 42.567C-0.667819 43.2605 -0.426704 43.5621 3.2521 45.4015C9.13215 48.3264 12.4793 56.3776 10.6399 63.0416C10.0368 65.1826 10.0367 66.1777 10.5795 66.5395C11.1826 66.9315 12.3887 66.8712 12.9314 66.3887C14.2884 65.2127 19.9576 64.9413 21.7668 65.9666C23.9681 67.2029 28.3404 74.1383 28.3404 76.3999C28.3404 77.5156 29.637 79.5058 30.6019 79.9279C32.2906 80.6516 32.3207 80.6214 35.125 76.8823C41.7288 68.1075 46.8248 67.2933 52.7048 74.0177C55.9916 77.7568 57.5294 77.7568 58.0722 73.9875C59.5196 63.9161 65.8219 57.6742 72.5161 59.6945C76.4965 60.9007 76.587 60.4785 74.3254 52.9098C73.3906 49.8643 73.6319 46.6378 74.9285 44.2556C76.5568 41.2703 79.1199 37.5313 80.3562 36.3552C82.0147 34.7571 81.4416 33.6414 78.9689 33.6414C76.436 33.6414 72.6065 29.7213 71.34 25.8315C70.4354 23.1477 71.4003 16.9963 73.3 13.0461C73.9936 11.5987 73.6317 10.6338 72.2446 10.3021C71.4606 10.091 70.2846 10.5433 70.2846 10.9956C70.2846 11.9304 60.967 12.624 57.9214 11.9304C53.0968 10.8147 48.061 5.26633 48.7244 1.76846C48.9054 0.441676 47.8501 -0.372462 46.4328 0.170312ZM47.9706 7.28667C50.4131 12.5033 57.9517 15.0363 67.3899 13.8602L69.0484 13.6492L68.4453 15.0363C65.0078 23.0573 68.2642 31.8019 75.8028 34.6666C77.4914 35.2998 77.5518 34.9983 75.2601 37.7725C68.988 45.4316 68.2644 48.839 71.6115 55.4126C72.3654 56.86 72.8479 58.036 72.7273 58.036C72.6067 58.036 71.4608 57.8551 70.1642 57.6139C66.6362 56.9807 64.8568 57.4631 61.6303 59.8453C57.0771 63.2225 55.1472 66.7204 55.1472 71.6958L55.1472 72.8417L53.2476 71.3038C46.282 65.6348 38.472 66.9315 32.6824 74.7113L31.8081 75.8571L30.5416 73.2036C27.2246 66.1475 22.3397 62.921 16.128 63.6749L13.776 63.9463L13.9568 63.0114C15.3137 55.5031 11.9062 47.7233 5.84523 44.527L4.03599 43.562L6.59909 40.9085C13.4441 33.8223 14.8614 26.9773 10.7906 20.4339L10.1875 19.4689L11.816 19.6499C18.5403 20.3434 25.9582 14.7046 26.6819 8.31192L26.893 6.53282L28.28 7.52788C33.8284 11.4781 39.2259 10.9956 44.5029 6.05036C46.4629 4.24112 46.5834 4.15064 46.8548 4.75372C46.9754 5.14573 47.4881 6.26143 47.9706 7.28667ZM35.3662 16.1218C8.7703 23.2985 14.017 65.665 41.2763 63.7352C65.2488 62.0465 74.5063 27.8216 53.3683 18.4738C49.9609 16.9661 49.2372 18.6849 52.6144 20.9465C74.1143 35.33 52.9159 72.2085 30.7827 58.9105C14.2884 49.0199 19.6258 25.349 36.5724 18.7754C38.7736 17.9311 42.2413 17.2677 44.8044 17.4184C47.4881 17.5692 48.3628 15.9409 44.9855 15.4283C42.3621 15.0061 37.869 15.4283 35.3662 16.1218Z" fill="black"/>
</svg>
