<svg width="91" height="81" viewBox="0 0 91 81" fill="none" xmlns="http://www.w3.org/2000/svg">
<path d="M11.9287 25.9152C11.1526 23.3651 9.90273 22.6386 9.39332 24.4041C8.77368 26.6325 9.62944 29.0555 11.0174 28.9533C12.3149 28.8577 12.5709 27.99 11.9287 25.9152Z" fill="black"/>
<path d="M77.4417 71.1441C75.2812 70.424 66.6658 68.1783 63.3835 67.4802C59.4814 66.6458 59.6103 66.7273 59.3109 64.7485C57.7411 53.3741 56.9593 51.0973 55.8909 52.3886C55.6163 52.712 56.1663 58.4923 56.8829 62.7444C57.7821 68.0139 58.0451 68.2371 64.6427 69.6612C68.8546 70.5637 70.5135 71.1086 72.1668 71.5931C61.6062 72.3708 40.5782 73.9495 40.5674 73.829C40.5619 73.7688 42.8701 72.4165 45.6696 70.7855C51.9053 67.1734 51.3638 68.244 50.5187 61.2122C49.2766 51.1173 49.3122 51.1753 44.7854 49.8109C41.6021 48.863 37.9205 47.1029 35.9008 45.5842C34.3058 44.398 34.1166 44.321 33.806 44.9199C32.8467 46.7489 27.7579 47.5784 24.8573 46.3974C12.6466 41.3242 14.1132 20.1462 26.5161 22.6284C28.2793 22.9836 28.7347 22.9804 29.1575 22.6158C31.2521 20.9154 47.6127 18.7709 57.2051 18.0343C58.0499 17.972 65.9761 18.2979 60.3004 16.6543C54.5917 14.9828 37.3218 16.1332 29.7887 19.8408C29.1191 20.163 28.9027 17.4201 29.5344 16.6763C30.7483 15.3136 41.2449 12.8127 51.975 12.5683C57.4608 12.4372 62.5451 13.2451 65.2735 13.8628C66.1427 14.0716 66.8166 14.8102 66.8979 15.7137L66.971 16.5269C67.1823 18.876 68.2663 20.7971 69.3223 20.7193C69.8051 20.6838 70.0532 19.7257 69.7549 19.111C69.1993 17.9999 73.8467 14.626 76.17 14.455C84.528 13.8395 85.201 27.4021 81.0695 35.4976C77.2733 42.9318 74.3591 44.2985 66.0861 42.4823C61.5616 41.4816 56.885 41.4924 44.1172 44.0697C40.4794 44.8226 41.723 46.1559 46.4521 45.7168C57.8661 44.6338 64.131 44.3847 63.6119 45.0292C63.0131 45.8009 60.1419 47.6494 58.1826 48.491C55.0844 49.8408 56.999 52.2161 59.6008 50.7512C61.5357 49.6386 64.7558 47.2793 66.1124 45.8152C67.2767 44.5774 67.3921 44.5083 68.0609 44.8532C75.621 48.8743 82.8681 43.3384 85.5063 31.4723C88.3376 18.7128 79.353 8.30889 70.5584 14.2012L69.0102 15.2247L68.5891 14.2553C67.897 12.6388 66.4911 11.5297 64.5909 11.0027C55.4437 8.58395 35.7874 9.87975 27.707 14.9313C26.6145 15.618 25.9987 16.876 26.1152 18.1711C26.1206 18.2313 26.359 20.8816 26.3508 20.7913L25.4871 20.6426C13.2374 18.513 7.9707 35.9387 18.0454 45.2922C22.0896 49.0568 27.7386 50.0657 32.9249 47.9558L34.7113 47.2179L35.7964 48.1385C37.4103 49.5355 41.4319 51.3615 44.4427 52.0796L47.1409 52.6994C47.7166 55.3855 47.7116 54.9918 48.5952 66.8411C46.6548 67.8935 35.9899 73.5901 33.7919 74.4795C31.4458 75.4102 32.3243 77.0735 34.1401 77.0004C36.5923 76.9108 44.4729 76.3912 53.6154 75.718C66.6201 74.7604 78.3598 74.2597 78.3296 74.2619C79.6104 74.3192 79.9477 71.9903 77.4417 71.1441Z" fill="black"/>
<path d="M34.85 55.5143C34.3579 54.0953 32.4017 54.6335 32.7758 56.0915C33.1526 57.5795 32.0529 59.8736 30.3067 59.0321C28.533 58.2229 28.2976 55.2692 31.6743 54.9902C32.0364 54.9636 32.5359 54.7752 32.7637 54.6068C33.87 53.7371 30.7823 53.1763 29.2125 53.9588C27.0335 55.0591 26.9357 59.0378 29.0521 59.943C32.1445 61.2311 35.8396 58.4124 34.85 55.5143Z" fill="black"/>
<path d="M28.2537 26.0777C23.5613 23.2097 17.5213 25.9585 18.4101 33.1387C19.3399 40.4371 24.6397 44.655 31.265 43.3486C33.6518 42.8697 33.7068 42.805 32.7384 40.4813C28.168 29.1763 30.0545 27.1881 28.2537 26.0777ZM28.6009 41.7561C24.5619 40.7499 22.4009 37.9986 21.7481 33.1051C21.0439 27.6394 22.0387 25.8684 25.0681 27.1308L26.5815 27.747L26.8558 30.1218C27.1545 32.7677 28.4657 37.552 29.6422 40.1636C30.5559 42.2184 30.5587 42.2486 28.6009 41.7561Z" fill="black"/>
<path d="M9.52149 17.7253C11.0673 18.7029 11.7872 17.5888 11.5244 14.6675C11.156 10.5715 9.84726 8.51543 8.66321 10.2094C8.04507 11.1038 8.74857 17.2365 9.52149 17.7253Z" fill="black"/>
<path d="M71.5352 8.85392C73.7053 8.33032 74.7869 5.15838 73.1893 3.9421C72.2109 3.1956 71.8348 3.40522 72.1489 4.53411C72.5041 5.78125 71.4377 7.7697 69.9244 7.15354C68.3809 6.5396 67.9921 3.56689 71.4593 3.28127C72.1835 3.22794 72.417 2.78631 71.8769 2.52291C70.1582 1.64903 67.472 2.51382 66.7483 4.59831C65.9229 6.90251 68.1469 9.67943 71.5352 8.85392Z" fill="black"/>
<path d="M11.1777 20.6045C11.259 21.508 14.5396 21.1755 18.1616 19.9084C21.4899 18.7538 18.1337 17.9095 14.5257 18.9937C12.0426 19.7526 11.1398 20.1829 11.1777 20.6045Z" fill="black"/>
<path d="M2.20624 20.477C1.05115 20.8046 0.921204 21.7236 2.03182 21.9147C3.35907 22.1504 8.72758 21.3913 9.23007 20.8996C10.3449 19.7867 5.46029 19.5098 2.20624 20.477Z" fill="black"/>
<path d="M78.6643 54.6832C80.0245 54.9468 80.3927 54.3134 80.1949 52.1149C79.9376 49.2537 79.7105 48.7551 78.6846 48.8306C78.0811 48.875 77.8257 49.0758 77.7182 49.5687C77.4308 51.4392 77.9843 54.5514 78.6643 54.6832Z" fill="black"/>
<path d="M70.6664 40.0527C77.9561 43.0933 85.0834 27.1071 79.5097 20.181C78.006 18.3211 75.3571 17.5763 73.4005 18.448C71.6497 19.2439 68.5872 23.0164 69.0306 23.8933C69.5176 24.9185 69.2467 31.699 68.61 34.4137C67.6593 38.3642 67.8564 38.8651 70.6664 40.0527ZM70.4808 36.6407C71.0622 34.3241 71.4331 28.9914 71.192 26.311C70.7911 21.8537 74.9539 17.8182 77.5871 20.08C80.0862 22.2 78.6267 31.9784 75.1712 36.4469C73.1304 39.0831 69.8334 39.2349 70.4808 36.6407Z" fill="black"/>
<path d="M78.3574 61.739C77.5698 64.4648 78.8835 67.2481 80.719 66.7189C82.1128 66.3434 82.1973 64.2453 80.911 61.7632C80.2816 60.5059 78.7016 60.501 78.3574 61.739Z" fill="black"/>
<path d="M87.603 57.147C86.2812 56.9715 81.6565 57.2211 81.0445 57.5087C78.8272 58.5208 84.1963 59.4594 87.1842 58.5724C88.397 58.2102 88.678 57.28 87.603 57.147Z" fill="black"/>
<path d="M72.308 57.9704C71.7839 58.2212 71.9065 58.9095 72.4987 59.0781C73.9985 59.5437 78.3633 58.7675 78.301 58.0748C78.2716 57.41 73.6473 57.3261 72.308 57.9704Z" fill="black"/>
<path d="M58.1543 22.5116C57.5929 21.6738 50.3629 21.6605 44.7611 22.5277C40.0866 23.2357 35.7022 24.468 33.6083 25.5014C31.6323 26.4958 32.2316 27.7552 34.2509 27.2428C37.0713 26.5197 47.9621 24.687 51.1605 24.4515C57.283 23.9703 58.8251 23.5536 58.1543 22.5116Z" fill="black"/>
</svg>
