<svg width="120" height="102" viewBox="0 0 120 102" fill="none" xmlns="http://www.w3.org/2000/svg">
<path d="M24.9765 26.6352L18.8726 27.9432L20.218 34.222L26.322 32.914L24.9765 26.6352Z" fill="#B8CC27"/>
<path d="M23.7479 19.5816L17.5273 19.2665L17.2032 25.6652L23.4238 25.9803L23.7479 19.5816Z" fill="#FFE32A"/>
<path d="M69.3055 26.1623L63.085 25.8472L62.7608 32.2459L68.9814 32.561L69.3055 26.1623Z" fill="#E58741"/>
<path d="M116.098 96.447H3.90333C2.8802 96.447 2.05078 97.2761 2.05078 98.2988C2.05078 99.3215 2.8802 100.151 3.90333 100.151H116.098C117.121 100.151 117.95 99.3215 117.95 98.2988C117.95 97.2761 117.121 96.447 116.098 96.447Z" fill="#B8D2DB"/>
<path d="M60.814 60.8551V64.3787C60.8168 65.1566 61.1271 65.9017 61.6773 66.4516C62.2274 67.0015 62.9728 67.3114 63.7506 67.3138H72.5026C74.1172 67.3138 75.2364 66.0071 74.9894 64.4168L73.9511 57.6958C73.704 56.1009 73.0088 54.7988 72.408 54.7988H71.3133" stroke="#918073" stroke-width="9.81" stroke-linecap="round" stroke-linejoin="round"/>
<path d="M73.948 54.7913H63.7506C62.1359 54.7913 60.814 55.8677 60.814 57.1836V59.5759" stroke="#214775" stroke-width="19.61" stroke-linecap="round" stroke-linejoin="round"/>
<path d="M80.0424 97.278C80.0424 97.8809 79.8028 98.4591 79.3765 98.8855C78.9502 99.3118 78.3719 99.5513 77.769 99.5513C77.166 99.5513 76.5878 99.3118 76.1615 98.8855C75.7351 98.4591 75.4956 97.8809 75.4956 97.278" fill="#56698F"/>
<path d="M95.5258 97.278C95.5258 97.8809 95.2862 98.4591 94.8599 98.8855C94.4336 99.3118 93.8553 99.5513 93.2524 99.5513C92.6494 99.5513 92.0712 99.3118 91.6449 98.8855C91.2185 98.4591 90.979 97.8809 90.979 97.278" fill="#56698F"/>
<path d="M107.918 97.278C107.918 97.8809 107.678 98.4591 107.252 98.8855C106.826 99.3118 106.247 99.5513 105.644 99.5513C105.042 99.5513 104.463 99.3118 104.037 98.8855C103.611 98.4591 103.371 97.8809 103.371 97.278" fill="#56698F"/>
<path d="M87.3396 73.483H83.2441V88.4498H87.3396V73.483Z" fill="#B7BEBC"/>
<path d="M83.2441 73.5348V79.2876L87.338 78.0312V73.5348H83.2441Z" fill="#7F8A99"/>
<path d="M80.7363 90.9317V92.1927H89.8466V89.9543L80.7363 90.9317Z" fill="#B7BEBC"/>
<path d="M88.8004 68.718H81.7821C80.7884 68.718 79.9829 69.5235 79.9829 70.5172V73.9921C79.9829 74.9857 80.7884 75.7912 81.7821 75.7912H88.8004C89.7941 75.7912 90.5996 74.9857 90.5996 73.9921V70.5172C90.5996 69.5235 89.7941 68.718 88.8004 68.718Z" fill="#3E4C60"/>
<path d="M96.3219 67.5593H74.2606C73.2669 67.5593 72.4614 68.3649 72.4614 69.3585V71.734C72.4614 72.7277 73.2669 73.5332 74.2606 73.5332H96.3219C97.3156 73.5332 98.1211 72.7277 98.1211 71.734V69.3585C98.1211 68.3649 97.3156 67.5593 96.3219 67.5593Z" fill="#3E4C60"/>
<path d="M108.647 69.1864C108.676 69.4129 108.655 69.6429 108.586 69.8607C108.518 70.0785 108.403 70.2789 108.25 70.4485C108.097 70.618 107.91 70.7527 107.7 70.8432C107.49 70.9338 107.264 70.9782 107.036 70.9733H79.627C79.1373 70.9616 78.6681 70.7747 78.3044 70.4465C77.9407 70.1184 77.7068 69.6707 77.6449 69.1848L75.5103 48.8098C75.4209 47.6258 75.502 46.435 75.7512 45.274L82.4127 17.9965C82.6475 17.036 83.6325 16.0662 84.5916 15.8421L100.231 12.2071C101.399 11.9597 102.588 11.8234 103.782 11.8H107.033C107.264 11.7962 107.494 11.841 107.707 11.9314C107.92 12.0218 108.111 12.1559 108.27 12.325C108.428 12.4941 108.548 12.6945 108.624 12.9132C108.7 13.1319 108.729 13.364 108.71 13.5946L106.455 45.2282C106.388 46.4225 106.407 47.62 106.514 48.8114L108.647 69.1864Z" fill="#7AAEED"/>
<path d="M104.964 69.1863C104.992 69.4129 104.972 69.6428 104.903 69.8606C104.834 70.0784 104.72 70.2789 104.567 70.4484C104.414 70.618 104.226 70.7526 104.017 70.8432C103.807 70.9337 103.581 70.9781 103.352 70.9733H76.4455C75.9558 70.9615 75.4865 70.7746 75.1229 70.4465C74.7592 70.1183 74.5252 69.6707 74.4633 69.1848L72.3287 48.8098C72.2388 47.6261 72.321 46.4356 72.5727 45.2755L80.4083 13.5458C80.5496 13.0573 80.8412 12.6256 81.2415 12.312C81.6419 11.9984 82.1308 11.8187 82.6389 11.7985H99.9081C100.388 11.8025 100.849 11.9919 101.193 12.3272C101.537 12.6624 101.738 13.1176 101.754 13.5976L102.596 45.2236C102.624 46.2117 102.729 47.8263 102.831 48.8098L104.964 69.1863Z" fill="#2E5389"/>
<path d="M94.2127 55.7107C94.4643 58.2738 94.4643 60.0806 98.8357 60.0806H105.392L105.055 63.9458L94.8867 65.2067L90.5991 62.4348L92.1117 56.8039L94.2127 55.7107Z" fill="#214775"/>
<path d="M102.273 62.8632H60.5047C58.9148 62.8632 57.626 64.152 57.626 65.7419V68.096C57.626 69.6859 58.9148 70.9747 60.5047 70.9747H102.273C103.863 70.9747 105.152 69.6859 105.152 68.096V65.7419C105.152 64.152 103.863 62.8632 102.273 62.8632Z" fill="#4977A5"/>
<path d="M87.9654 62.848C84.7284 62.848 82.3925 69.2946 82.3925 69.2946H66.5566L66.8463 62.848H87.9654Z" fill="#2E5389"/>
<path d="M87.7373 68.2758C87.7393 68.991 88.0243 69.6762 88.53 70.1819C89.0357 70.6876 89.7209 70.9726 90.4361 70.9746H103.701C104.427 70.9651 105.122 70.6824 105.649 70.1831C106.175 69.6838 106.494 69.0044 106.542 68.2804L106.694 65.5572C106.716 65.2095 106.666 64.8611 106.547 64.5337C106.428 64.2062 106.243 63.9068 106.003 63.6541C105.763 63.4013 105.474 63.2006 105.153 63.0645C104.832 62.9284 104.487 62.8598 104.139 62.863H90.4361C89.7209 62.865 89.0357 63.15 88.53 63.6557C88.0243 64.1614 87.7393 64.8467 87.7373 65.5618V68.2758Z" fill="#CCB396"/>
<path d="M75.1144 46.9619C74.1249 46.9954 73.4845 46.2315 73.6918 45.2633L80.4632 13.5596C80.5858 13.0702 80.8642 12.634 81.2564 12.3166C81.6486 11.9993 82.1333 11.818 82.6374 11.8001H103.352C103.584 11.796 103.814 11.8406 104.027 11.931C104.24 12.0213 104.432 12.1554 104.59 12.3246C104.748 12.4937 104.869 12.6942 104.945 12.9129C105.02 13.1317 105.049 13.364 105.03 13.5947L102.845 44.2311C102.799 44.7197 102.58 45.1758 102.226 45.5163C101.873 45.8568 101.409 46.0592 100.919 46.0867L75.1144 46.9619Z" fill="#6589BD"/>
<path d="M65.2314 92.9462L85.2923 89.2411L105.644 92.9462" stroke="#B7BEBC" stroke-width="11.8" stroke-linecap="round" stroke-linejoin="round"/>
<path d="M77.77 92.9462L85.293 89.2411L93.1073 92.9462" stroke="#B7BEBC" stroke-width="11.8" stroke-linecap="round" stroke-linejoin="round"/>
<path d="M67.5214 97.278C67.5214 97.8809 67.2818 98.4591 66.8555 98.8855C66.4292 99.3118 65.8509 99.5513 65.248 99.5513C64.645 99.5513 64.0668 99.3118 63.6405 98.8855C63.2141 98.4591 62.9746 97.8809 62.9746 97.278" fill="#56698F"/>
<path d="M62.9736 97.3878C62.9298 97.388 62.8864 97.3796 62.8459 97.3629C62.8054 97.3463 62.7686 97.3219 62.7375 97.291C62.7065 97.2601 62.6819 97.2234 62.6651 97.183C62.6483 97.1425 62.6396 97.0992 62.6396 97.0554C62.6396 96.3639 62.9143 95.7007 63.4033 95.2118C63.8923 94.7228 64.5554 94.4481 65.2469 94.4481C65.9384 94.4481 66.6016 94.7228 67.0906 95.2118C67.5795 95.7007 67.8542 96.3639 67.8542 97.0554C67.8542 97.0992 67.8456 97.1425 67.8288 97.183C67.812 97.2234 67.7874 97.2601 67.7563 97.291C67.7253 97.3219 67.6885 97.3463 67.648 97.3629C67.6075 97.3796 67.5641 97.388 67.5203 97.3878H62.9736Z" fill="#B7BEBC"/>
<path d="M65.2478 94.7821C65.8508 94.7821 66.429 95.0216 66.8554 95.4479C67.2817 95.8743 67.5212 96.4525 67.5212 97.0555H62.9745C62.9743 96.7569 63.0329 96.4612 63.1471 96.1852C63.2613 95.9093 63.4287 95.6586 63.6399 95.4475C63.851 95.2364 64.1017 95.0689 64.3776 94.9547C64.6535 94.8406 64.9492 94.7819 65.2478 94.7821V94.7821ZM65.2478 94.1143C64.468 94.1151 63.7204 94.4252 63.169 94.9766C62.6176 95.528 62.3074 96.2757 62.3066 97.0555C62.307 97.2323 62.3776 97.4018 62.5028 97.5267C62.628 97.6516 62.7976 97.7218 62.9745 97.7218H67.5212C67.6981 97.7218 67.8677 97.6516 67.9929 97.5267C68.1181 97.4018 68.1886 97.2323 68.1891 97.0555C68.1882 96.2757 67.8781 95.528 67.3267 94.9766C66.7753 94.4252 66.0277 94.1151 65.2478 94.1143V94.1143Z" fill="#B7BEBC"/>
<path d="M75.496 97.3878C75.4522 97.388 75.4089 97.3796 75.3684 97.3629C75.3279 97.3463 75.291 97.3219 75.26 97.291C75.229 97.2601 75.2044 97.2234 75.1876 97.183C75.1708 97.1425 75.1621 97.0992 75.1621 97.0554C75.1621 96.3639 75.4368 95.7007 75.9258 95.2118C76.4147 94.7228 77.0779 94.4481 77.7694 94.4481C78.4609 94.4481 79.1241 94.7228 79.613 95.2118C80.102 95.7007 80.3767 96.3639 80.3767 97.0554C80.3767 97.0992 80.368 97.1425 80.3512 97.183C80.3344 97.2234 80.3098 97.2601 80.2788 97.291C80.2478 97.3219 80.2109 97.3463 80.1704 97.3629C80.1299 97.3796 80.0866 97.388 80.0428 97.3878H75.496Z" fill="#B7BEBC"/>
<path d="M77.7684 94.7821C78.3713 94.7821 78.9495 95.0216 79.3759 95.4479C79.8022 95.8743 80.0417 96.4525 80.0417 97.0555H75.495C75.4948 96.7569 75.5534 96.4612 75.6676 96.1852C75.7818 95.9093 75.9492 95.6586 76.1604 95.4475C76.3715 95.2364 76.6222 95.0689 76.8981 94.9547C77.174 94.8406 77.4698 94.7819 77.7684 94.7821V94.7821ZM77.7684 94.1143C76.9885 94.1151 76.2409 94.4252 75.6895 94.9766C75.1381 95.528 74.828 96.2757 74.8271 97.0555C74.8276 97.2323 74.8981 97.4018 75.0233 97.5267C75.1485 97.6516 75.3181 97.7218 75.495 97.7218H80.0417C80.2186 97.7218 80.3882 97.6516 80.5134 97.5267C80.6386 97.4018 80.7092 97.2323 80.7096 97.0555C80.7088 96.2757 80.3986 95.528 79.8472 94.9766C79.2958 94.4252 78.5482 94.1151 77.7684 94.1143V94.1143Z" fill="#B7BEBC"/>
<path d="M90.9809 97.3878C90.9371 97.388 90.8937 97.3796 90.8532 97.3629C90.8127 97.3463 90.7759 97.3219 90.7449 97.291C90.7138 97.2601 90.6892 97.2234 90.6724 97.183C90.6556 97.1425 90.647 97.0992 90.647 97.0554C90.647 96.3639 90.9217 95.7007 91.4106 95.2118C91.8996 94.7228 92.5628 94.4481 93.2543 94.4481C93.9458 94.4481 94.6089 94.7228 95.0979 95.2118C95.5869 95.7007 95.8616 96.3639 95.8616 97.0554C95.8616 97.0992 95.8529 97.1425 95.8361 97.183C95.8193 97.2234 95.7947 97.2601 95.7637 97.291C95.7326 97.3219 95.6958 97.3463 95.6553 97.3629C95.6148 97.3796 95.5714 97.388 95.5276 97.3878H90.9809Z" fill="#B7BEBC"/>
<path d="M93.2547 94.7821C93.8574 94.7825 94.4352 95.0222 94.8612 95.4485C95.2872 95.8748 95.5265 96.4528 95.5265 97.0555H90.9813C90.9811 96.7569 91.0398 96.4612 91.1539 96.1852C91.2681 95.9093 91.4356 95.6586 91.6467 95.4475C91.8579 95.2364 92.1086 95.0689 92.3845 94.9547C92.6604 94.8406 92.9561 94.7819 93.2547 94.7821V94.7821ZM93.2547 94.1143C92.4749 94.1151 91.7272 94.4252 91.1758 94.9766C90.6244 95.528 90.3143 96.2757 90.3135 97.0555C90.3139 97.2323 90.3844 97.4018 90.5096 97.5267C90.6348 97.6516 90.8045 97.7218 90.9813 97.7218H95.5265C95.7034 97.7218 95.873 97.6516 95.9982 97.5267C96.1234 97.4018 96.194 97.2323 96.1944 97.0555C96.1936 96.2757 95.8834 95.528 95.332 94.9766C94.7806 94.4252 94.033 94.1151 93.2532 94.1143H93.2547Z" fill="#B7BEBC"/>
<path d="M103.371 97.3878C103.327 97.388 103.283 97.3796 103.243 97.3629C103.202 97.3463 103.166 97.3219 103.135 97.291C103.103 97.2601 103.079 97.2234 103.062 97.183C103.045 97.1425 103.037 97.0992 103.037 97.0554C103.037 96.3639 103.311 95.7007 103.8 95.2118C104.289 94.7228 104.952 94.4481 105.644 94.4481C106.335 94.4481 106.999 94.7228 107.488 95.2118C107.977 95.7007 108.251 96.3639 108.251 97.0554C108.251 97.0992 108.243 97.1425 108.226 97.183C108.209 97.2234 108.184 97.2601 108.153 97.291C108.122 97.3219 108.085 97.3463 108.045 97.3629C108.004 97.3796 107.961 97.388 107.917 97.3878H103.371Z" fill="#B7BEBC"/>
<path d="M105.644 94.7821C106.247 94.7821 106.825 95.0216 107.251 95.4479C107.678 95.8743 107.917 96.4525 107.917 97.0555H103.37C103.37 96.7569 103.429 96.4612 103.543 96.1852C103.657 95.9093 103.825 95.6586 104.036 95.4475C104.247 95.2364 104.498 95.0689 104.774 94.9547C105.05 94.8406 105.345 94.7819 105.644 94.7821V94.7821ZM105.644 94.1143C104.864 94.1151 104.116 94.4252 103.565 94.9766C103.014 95.528 102.703 96.2757 102.703 97.0555C102.703 97.2323 102.774 97.4018 102.899 97.5267C103.024 97.6516 103.194 97.7218 103.37 97.7218H107.917C108.094 97.7218 108.264 97.6516 108.389 97.5267C108.514 97.4018 108.585 97.2323 108.585 97.0555C108.584 96.2757 108.274 95.528 107.723 94.9766C107.171 94.4252 106.424 94.1151 105.644 94.1143V94.1143Z" fill="#B7BEBC"/>
<path d="M88.0911 88.6725V83.2338C88.0903 82.9955 87.9952 82.7671 87.8267 82.5986C87.6582 82.4301 87.4298 82.335 87.1915 82.3342H83.3903C83.152 82.335 82.9236 82.4301 82.7551 82.5986C82.5866 82.7671 82.4915 82.9955 82.4907 83.2338V88.6725" fill="#3E4C60"/>
<path d="M65.2471 95.5047V93.0972" stroke="#B7BEBC" stroke-width="11.8" stroke-linecap="round" stroke-linejoin="round"/>
<path d="M77.77 95.5047V93.0972" stroke="#B7BEBC" stroke-width="11.8" stroke-linecap="round" stroke-linejoin="round"/>
<path d="M93.2544 95.5047V93.0972" stroke="#B7BEBC" stroke-width="11.8" stroke-linecap="round" stroke-linejoin="round"/>
<path d="M105.644 95.5047V93.0972" stroke="#B7BEBC" stroke-width="11.8" stroke-linecap="round" stroke-linejoin="round"/>
<path d="M91.3855 28.8009C92.4666 28.9061 93.5888 29.0113 94.5524 29.577C95.0009 29.8412 95.3918 30.1928 95.702 30.6108C96.6321 31.8473 97.2268 33.9941 97.1658 37.7999C97.0331 46.2515 96.6763 53.9346 98.6295 57.2814C99.5733 58.8991 97.2573 55.6148 94.7186 55.5432C91.9969 55.4639 88.9871 58.5271 88.8209 58.2145C88.5023 57.6046 87.7994 48.996 87.7994 48.996C87.7994 48.996 87.1895 37.1961 87.9839 35.3862C88.7782 33.5764 90.8961 31.0499 90.8961 31.0499L91.3855 28.8009Z" fill="#2E5389"/>
<path d="M73.9318 47.1876C73.7048 47.1728 73.4838 47.1085 73.2843 46.9994C73.0847 46.8902 72.9114 46.7388 72.7765 46.5556C72.6415 46.3725 72.5483 46.1621 72.5032 45.9391C72.4581 45.7162 72.4622 45.4861 72.5154 45.2649L79.2867 13.5611C79.4096 13.0719 79.688 12.6358 80.0802 12.3185C80.4723 12.0012 80.9568 11.8198 81.461 11.8016H89.0938C89.3248 11.7992 89.5538 11.8449 89.7662 11.9358C89.9786 12.0267 90.1697 12.1609 90.3275 12.3296C90.4852 12.4984 90.6061 12.6982 90.6825 12.9163C90.7588 13.1343 90.789 13.3659 90.771 13.5962L88.5753 46.7164C88.5605 46.9502 88.4988 47.1787 88.394 47.3882C88.2892 47.5977 88.1434 47.7841 87.9652 47.9363C87.787 48.0884 87.5801 48.2032 87.3568 48.2739C87.1334 48.3446 86.8981 48.3698 86.6649 48.3479L73.9318 47.1876Z" fill="#2E5389"/>
<path d="M62.9835 87.6904C62.6054 88.8675 61.5549 91.3055 61.7226 92.6076C61.8903 93.9097 62.5215 94.3306 63.3998 94.4571C64.278 94.5837 66.0894 94.204 67.2665 91.8925C68.4436 89.581 69.2837 87.8733 69.6619 86.8091C69.9775 85.9186 69.1572 83.1116 68.1066 82.4803C68.1066 82.4803 67.9206 84.1088 66.8868 86.094C65.7936 88.2027 64.6226 88.3628 64.1591 88.3628C63.2351 88.3628 63.5492 87.5226 63.5492 86.8091C63.5492 86.0955 62.9835 87.6904 62.9835 87.6904Z" fill="#24774B"/>
<path d="M64.1681 89.2167C63.1145 89.0932 62.773 88.4269 63.0459 87.5227C63.3189 86.6186 63.3189 82.7335 63.3189 82.7335L68.1523 81.2195L68.6295 83.5615C68.6295 83.5615 67.3731 89.5948 64.1681 89.2167Z" fill="#3F2F36"/>
<path d="M76.7075 87.794C76.8753 87.2055 77.2107 85.8881 77.4699 85.1318C77.7291 84.3756 77.7215 82.6389 77.7215 82.6389L82.5396 80.762V82.4392L81.111 88.4344L78.0859 91.5159C78.0859 91.5159 76.4895 90.6193 76.517 90.5355C76.5444 90.4516 76.7075 87.794 76.7075 87.794Z" fill="#3F2F36"/>
<path d="M83.4301 86.5331C83.1496 87.233 82.4772 89.4179 81.637 91.4352C80.7969 93.4524 79.8424 93.9586 77.7978 94.1492C75.7531 94.3398 74.8581 93.1657 75.1112 91.8484C75.3643 90.531 77.0095 86.2877 77.4623 85.1304C77.4257 85.2417 76.7091 87.4343 77.4288 88.3613C77.5401 88.4988 77.6828 88.6076 77.8449 88.6785C78.0071 88.7493 78.1838 88.7802 78.3604 88.7684C80.495 88.7684 81.1888 86.7222 81.637 85.5665C82.0853 84.4107 82.5061 82.1495 82.5061 82.1495C82.7658 82.559 82.9907 82.9894 83.1785 83.4364C83.2481 83.5907 83.3081 83.749 83.3585 83.9106C83.6421 84.8483 83.668 85.94 83.4301 86.5331Z" fill="#268E5A"/>
<path d="M83.4302 86.5331C83.1496 87.2329 82.4772 89.4179 81.6371 91.4351C80.7969 93.4523 79.7891 94.4053 77.7429 94.6065C75.6967 94.8078 74.8581 93.1779 75.1112 91.862C75.3643 90.5462 77.0095 86.3013 77.4624 85.144C77.4258 85.2554 76.7091 87.4479 77.4288 88.375C76.639 90.7566 76.2166 91.798 76.9851 92.5649C77.8252 93.4066 80.0102 93.0696 81.355 89.5399C82.2241 87.2528 82.9514 85.144 83.3585 83.9319C83.6421 84.8482 83.668 85.94 83.4302 86.5331Z" fill="#24774B"/>
<path d="M51.1558 43.6988C52.2871 41.6876 52.8528 40.8719 54.3577 41.2485C55.8626 41.6251 58.322 42.819 60.7052 42.819C63.0883 42.819 61.4584 44.4535 61.4584 44.4535L51.1558 43.6988Z" fill="#E58741"/>
<path d="M71.7762 38.5682C72.0507 37.3607 71.2426 37.4216 72.3053 36.1287C73.368 34.8357 77.5778 29.5845 80.3559 28.9182C83.1339 28.2519 80.7767 35.4471 80.7767 35.4471L76.4953 40.3263L71.7762 38.5682Z" fill="#268E5A"/>
<path d="M76.2431 38.0893C75.9061 39.5469 76.8026 41.6755 76.9155 39.9388C77.0283 38.2021 77.6992 34.3918 78.1475 33.3824C78.1475 33.3824 75.4029 34.3903 73.6099 36.7994L76.2431 38.0893Z" fill="#24774B"/>
<path d="M73.4172 37.4081C72.9445 37.3136 72.1425 36.6823 72.2904 36.2097C72.4383 35.737 73.841 35.0326 76.4666 38.1918C78.3908 40.5003 74.422 42.7477 73.0604 38.5196C72.7768 37.6292 73.4172 37.4081 73.4172 37.4081Z" fill="#1E5435"/>
<path d="M54.4717 45.6049C61.2095 46.8369 67.1681 45.5515 70.4478 43.5206C72.1588 42.4685 73.6923 41.1521 74.9915 39.6203C75.3727 39.1629 75.7097 38.7238 76.0085 38.2953C76.2265 37.9812 75.6746 37.1304 74.6164 36.3788C73.9151 35.8832 73.3875 35.746 73.0094 35.7689C72.8733 35.7731 72.7398 35.8069 72.6181 35.868C72.4964 35.9291 72.3896 36.016 72.3049 36.1226C71.1781 37.6372 69.772 38.9223 68.1622 39.9085C64.6081 42.1087 60.0156 43.0388 54.5083 42.6759L54.4717 45.6049Z" fill="#E58741"/>
<g style="mix-blend-mode:multiply">
<path d="M73.0103 35.7751C74.1431 36.6685 74.7454 38.2146 74.9924 39.6204C75.3736 39.163 75.7106 38.7239 76.0094 38.2954C76.2274 37.9813 75.6755 37.1305 74.6173 36.3788C73.9159 35.8833 73.3884 35.7522 73.0103 35.7751Z" fill="#D9D9D9"/>
</g>
<path d="M62.6872 82.7365L62.71 81.4268C62.803 75.9759 62.9204 70.5097 64.2942 64.8712C64.9392 62.2213 66.348 60.3336 68.4796 59.2618C70.1477 58.4232 71.892 58.2844 73.2932 58.1731C73.9488 58.1213 74.763 58.0557 75.0878 57.9246C75.5452 57.7447 76.085 57.5846 76.7772 57.3818C80.7217 56.2291 81.85 55.4484 82.1595 55.0489C82.2495 53.2436 83.7407 46.9069 85.5673 46.9069C86.0153 46.9069 86.459 46.9951 86.8729 47.1666C87.2868 47.3381 87.6629 47.5895 87.9796 47.9064C88.2964 48.2233 88.5476 48.5995 88.7189 49.0135C88.8902 49.4275 88.9783 49.8712 88.9781 50.3192C88.9781 56.0232 82.0314 62.9562 78.6923 63.932C78.2882 64.0494 77.7774 64.1973 77.6249 64.2568C76.335 64.7752 75.0024 64.8819 73.8268 64.9749C71.2348 65.1808 71.1982 65.3302 70.9161 66.4859C69.7223 71.3864 69.6171 76.1649 69.5256 81.5442L69.5012 82.8646C69.4737 84.7263 62.6506 84.6211 62.6872 82.7365Z" fill="#5B2727"/>
<path d="M83.1395 81.288C83.1776 79.2662 83.0678 77.8269 82.9611 75.9759C82.7644 72.5742 82.5799 69.3616 83.3834 66.0651C83.725 64.6639 85.6614 62.9242 89.1485 62.9242C90.0481 62.9242 92.1339 63.7414 93.2332 62.421C94.8754 60.4495 95.191 56.1833 95.191 50.3253C95.191 49.4203 94.8315 48.5524 94.1915 47.9124C93.5516 47.2725 92.6836 46.913 91.7786 46.913C89.8941 46.913 88.3663 53.3428 88.3663 55.2273C88.3663 56.6453 88.1269 57.1729 88.0613 57.2857C87.7396 57.4382 86.6814 57.5098 86.0411 57.551C83.3392 57.7218 78.3107 58.042 76.7493 64.4504C75.7034 68.7425 75.9275 72.623 76.1395 76.3753C76.2431 78.1776 76.3407 79.8822 76.3072 81.6418C76.2797 83.1391 79.6265 83.3708 81.5522 82.9378C82.7492 82.6649 83.1319 81.6692 83.1395 81.288Z" fill="#6D3232"/>
<path d="M78.4778 41.7718C78.3573 44.3562 77.9472 49.0051 77.5309 52.7498C77.2382 55.3678 76.9424 57.5497 76.7365 58.2922C76.7253 58.3354 76.711 58.3777 76.6938 58.4188C76.6844 58.4175 76.6755 58.4139 76.6679 58.4081C75.5011 58.1281 74.2955 58.0461 73.1016 58.1657C73.254 57.6574 73.3974 57.1136 73.5315 56.5342C73.742 55.6194 73.963 54.4514 74.1765 53.1508C74.9739 48.3068 75.7012 41.665 75.6814 39.8201C75.6814 39.8201 75.718 39.8079 75.7881 39.7912C76.1746 39.6922 76.5666 39.6169 76.9622 39.5655C77.6026 39.4862 78.275 39.4893 78.4564 39.8201C78.5296 39.9589 78.5296 40.6801 78.4778 41.7718Z" fill="#268E5A"/>
<path d="M76.0845 14.3022C75.6637 19.8751 80.6267 24.8793 86.1828 25.3474C91.7389 25.8155 96.7035 23.6198 97.4247 18.0774L98.0346 12.6235C98.2122 11.3212 98.1213 9.99632 97.7677 8.73045C97.414 7.46457 96.805 6.28448 95.9782 5.2628C95.1513 4.24112 94.1241 3.39949 92.9598 2.7897C91.7954 2.17992 90.5186 1.81488 89.2079 1.71708L87.2623 1.55698C85.9359 1.4507 84.6015 1.60711 83.3356 2.01726C82.0697 2.4274 80.8972 3.08322 79.8851 3.94717C78.873 4.81111 78.0413 5.86621 77.4375 7.05205C76.8338 8.23788 76.4698 9.53117 76.3666 10.8578L76.0845 14.3022Z" fill="#1E1E1D"/>
<path d="M96.7196 42.9029C96.6845 43.6546 96.6296 44.4093 96.558 45.161C96.4314 46.4677 96.253 48.4499 96.0335 50.5632C95.6629 54.1127 95.172 58.0343 94.6033 59.7512C94.2084 60.9451 92.8346 60.5532 91.1772 59.8411C89.901 59.2938 88.4571 58.5543 87.1626 58.2021C86.2799 57.9432 85.3532 57.87 84.4409 57.9871V57.9871C84.3525 57.9962 84.2671 58.0115 84.1832 58.0267C82.7439 58.2829 81.6827 58.9843 80.3607 59.1581L80.2921 59.1672C80.2479 59.1672 80.2113 59.1764 80.1747 59.1794C79.2324 59.2816 81.0804 58.8196 78.0401 58.2021C77.5247 58.0984 78.0645 55.8829 78.6637 52.6231C79.3529 48.857 80.1214 43.6912 79.4261 38.7724C79.3193 38.01 79.1364 37.1897 78.9458 36.3588C78.2947 33.5243 77.5491 30.5541 79.3712 29.2154C79.8606 28.8571 80.5315 28.6146 81.4357 28.5216C81.4723 28.5216 81.5089 28.5216 81.547 28.5125C81.611 28.5125 81.6751 28.5003 81.7391 28.4972L83.7045 28.3768L90.0047 27.9895C92.8895 27.9895 94.6963 30.0067 95.7133 33.0394C96.2378 34.6068 96.5458 36.4457 96.6845 38.4156C96.7833 39.9094 96.7951 41.4077 96.7196 42.9029Z" fill="#3CAF78"/>
<path d="M92.1516 48.032L89.6023 51.3254L84.4411 57.987C84.3526 57.9961 84.2672 58.0114 84.1834 58.0266C82.744 58.2828 81.6828 58.9842 80.3609 59.158L80.2923 59.1671C80.2511 59.1671 80.213 59.1763 80.1749 59.1793C80.0419 59.1973 79.908 59.208 79.7739 59.2114C79.5025 59.2114 79.379 59.158 79.0344 59.0345C78.3561 58.8068 77.6633 58.625 76.9607 58.4902V58.4902L76.7305 58.4429C76.7191 58.4409 76.7083 58.4367 76.6985 58.4307C76.6891 58.4294 76.6801 58.4258 76.6726 58.42C76.2151 58.1761 76.9348 56.2427 77.4044 52.7785C77.8959 49.126 77.8743 45.4226 77.3404 41.7761C77.2382 41.064 77.1162 40.3306 76.9699 39.5743C76.9211 39.3212 76.8708 39.0666 76.8174 38.812C76.2761 36.2443 76.116 32.9799 77.4791 30.8178C78.2415 29.598 79.504 28.7213 81.4434 28.5307C81.48 28.5307 81.5166 28.5307 81.5547 28.5216C81.6188 28.5216 81.6828 28.5094 81.7469 28.5063L83.7122 28.3859C84.0401 29.3846 84.1285 32.0864 85.3407 31.998C87.8305 31.815 88.9207 32.1901 89.2074 35.0032C89.6282 39.12 89.7075 42.1969 89.7075 42.1969L91.7323 42.2045L92.1516 48.032Z" fill="#268E5A"/>
<path d="M94.3841 18.951C94.354 19.1961 94.3726 19.4446 94.4388 19.6825C94.5049 19.9203 94.6174 20.1427 94.7696 20.3371C94.9219 20.5314 95.111 20.6938 95.3261 20.8149C95.5412 20.936 95.7781 21.0135 96.0232 21.043C96.2684 21.073 96.5171 21.0545 96.7551 20.9883C96.9931 20.9222 97.2158 20.8098 97.4103 20.6576C97.6049 20.5054 97.7676 20.3163 97.889 20.1012C98.0105 19.8861 98.0883 19.6491 98.1181 19.4039L98.3102 17.8197C98.3403 17.5746 98.3217 17.3259 98.2556 17.088C98.1894 16.8501 98.077 16.6275 97.9248 16.4331C97.7725 16.2387 97.5835 16.0761 97.3684 15.9549C97.1532 15.8336 96.9163 15.7559 96.6712 15.7262C96.176 15.6664 95.6774 15.8056 95.2849 16.1132C94.8923 16.4209 94.638 16.8718 94.5777 17.3669L94.3841 18.951Z" fill="#E58741"/>
<path d="M90.0121 27.988C90.1371 30.0159 87.3667 31.8624 85.3388 31.9874L84.7975 32.021C82.7696 32.146 81.8716 30.5252 81.748 28.4973L90.0121 27.988Z" fill="white"/>
<path d="M82.6927 28.2274C82.7857 29.7445 83.1196 30.8194 84.7145 30.7234L85.2604 30.6898C86.8568 30.5907 89.1317 29.3526 89.0387 27.8355L88.9075 25.7162C88.8145 24.1914 87.4331 23.0372 85.8382 23.1348L85.2909 23.1699C83.696 23.2674 82.4686 24.5894 82.5616 26.1065L82.6927 28.2274Z" fill="#E58741"/>
<g style="mix-blend-mode:multiply">
<path d="M88.9505 26.3825C89.007 27.2974 86.7732 28.5415 85.6099 28.6955C84.4465 28.8495 82.7418 29.0005 82.6778 27.9652L82.353 22.7064L88.673 21.8647L88.9505 26.3825Z" fill="#D9D9D9"/>
</g>
<path d="M77.0772 18.0758C76.8683 23.1379 79.5777 26.323 84.6093 26.7362C89.641 27.1494 95.6194 23.1851 96.2385 18.1566L96.67 15.1407C97.289 10.109 93.7272 6.70889 88.6773 6.29721L84.1245 5.92365C79.0761 5.51045 77.4721 8.4913 77.2632 13.5473L77.0772 18.0758Z" fill="#E58741"/>
<path d="M92.42 8.06735L81.5212 7.17234C80.3304 7.07475 79.2859 6.96955 78.6455 6.27427C76.5826 4.03291 77.3343 0 77.3343 0C77.3343 0 78.2125 0.815731 83.1496 1.21979C88.3108 1.64366 92.4276 1.23808 95.782 5.37468C96.6191 6.40692 92.42 8.06735 92.42 8.06735Z" fill="#070707"/>
<path d="M88.5127 6.75587C88.4502 7.53043 87.5674 7.64174 89.2415 7.77896C90.9629 7.92076 93.6007 8.96673 93.2942 12.7084C93.1662 14.2636 93.0411 15.8021 92.9893 16.4928C92.9375 17.1835 94.2823 17.6181 94.7184 16.6453C95.2962 15.3584 96.5846 15.7137 96.6822 15.7228C97.3973 15.7914 97.3821 10.0508 97.0497 9.54003C96.7173 9.02924 95.1544 6.76502 94.6513 6.38383C94.1481 6.00265 90.286 4.36509 90.286 4.36509C90.286 4.36509 88.9808 3.83143 88.4563 4.46877C87.9318 5.10611 88.5127 6.75587 88.5127 6.75587Z" fill="#070707"/>
<path d="M90.1263 13.6951C90.077 13.6953 90.0282 13.6844 89.9836 13.6633C89.9391 13.6422 89.8998 13.6114 89.8686 13.5732C89.4112 13.0075 88.8775 12.8199 88.0252 12.9251C87.9823 12.9305 87.9387 12.9273 87.897 12.9157C87.8553 12.9042 87.8162 12.8845 87.7821 12.8579C87.7132 12.8042 87.6685 12.7252 87.6578 12.6385C87.647 12.5518 87.6712 12.4643 87.725 12.3954C87.7787 12.3265 87.8577 12.2818 87.9444 12.271C89.0239 12.1353 89.7741 12.4083 90.384 13.1584C90.4371 13.226 90.4618 13.3116 90.4527 13.3971C90.4436 13.4825 90.4014 13.5611 90.3352 13.6159C90.2772 13.6663 90.2031 13.6944 90.1263 13.6951Z" fill="#212020"/>
<path d="M78.7692 12.9527C78.7065 12.9528 78.6451 12.9348 78.5924 12.9008C78.5557 12.8774 78.524 12.847 78.4991 12.8114C78.4742 12.7757 78.4565 12.7355 78.4472 12.693C78.4378 12.6505 78.437 12.6066 78.4446 12.5638C78.4522 12.521 78.4683 12.4801 78.4917 12.4434C79.0391 11.588 80.2314 11.5377 81.1097 11.8518C81.1528 11.8646 81.1929 11.8861 81.2275 11.9149C81.262 11.9437 81.2903 11.9792 81.3107 12.0194C81.331 12.0595 81.343 12.1033 81.3458 12.1482C81.3487 12.1931 81.3423 12.2382 81.3271 12.2805C81.312 12.3229 81.2883 12.3617 81.2577 12.3946C81.227 12.4275 81.1899 12.4538 81.1487 12.4719C81.1076 12.49 81.0631 12.4996 81.0181 12.4999C80.9731 12.5002 80.9285 12.4914 80.8871 12.4739C80.2269 12.2376 79.3837 12.2742 79.0482 12.7987C79.0186 12.8459 78.9774 12.8847 78.9286 12.9117C78.8798 12.9386 78.825 12.9527 78.7692 12.9527V12.9527Z" fill="#212020"/>
<path d="M79.5989 17.6077C79.5977 18.1064 79.3985 18.5843 79.0451 18.9362C78.6918 19.2882 78.2131 19.4854 77.7143 19.4846V19.4846C77.2168 19.4838 76.7399 19.2858 76.388 18.934C76.0362 18.5822 75.8382 18.1052 75.8374 17.6077V16.0128C75.8378 15.7658 75.8869 15.5213 75.9818 15.2933C76.0768 15.0652 76.2157 14.8581 76.3907 14.6838C76.5658 14.5095 76.7734 14.3714 77.0018 14.2774C77.2303 14.1834 77.475 14.1353 77.722 14.1359V14.1359C78.2207 14.1371 78.6986 14.3363 79.0505 14.6896C79.4025 15.043 79.5997 15.5217 79.5989 16.0204V17.6077Z" fill="#E58741"/>
<path d="M84.1812 58.0252C85.1752 57.8558 86.1949 57.9163 87.162 58.2021C88.4565 58.5543 89.9065 59.2938 91.1766 59.8412C94.7125 56.0842 95.2278 42.6117 95.2278 42.6117L94.6103 44.2645C94.6103 44.2645 89.6336 46.5226 89.6763 46.7681C89.7007 46.9679 86.1359 56.778 84.1812 58.0252Z" fill="#268E5A"/>
<path d="M96.0335 50.5631C95.663 54.1127 95.1721 58.0343 94.6033 59.7511C94.2084 60.945 92.8346 60.5531 91.1773 59.8411C89.9011 59.2937 88.4571 58.5542 87.1626 58.202C86.28 57.9432 85.3533 57.87 84.441 57.987V57.987C84.3526 57.9962 84.2672 58.0114 84.1833 58.0267C82.744 58.2828 81.6828 58.9842 80.3608 59.158L80.2922 59.1672C80.251 59.1672 80.2129 59.1763 80.1748 59.1794C80.0418 59.1973 79.9079 59.208 79.7738 59.2114C79.5024 59.2114 79.3789 59.158 79.0343 59.0345C78.356 58.8069 77.6633 58.625 76.9607 58.4902L76.7304 58.4429C76.7191 58.4409 76.7082 58.4368 76.6984 58.4307C76.689 58.4295 76.6801 58.4258 76.6725 58.4201C75.5049 58.1354 74.2977 58.0493 73.1016 58.1654C73.254 57.6572 73.3974 57.1134 73.5315 56.534C73.742 55.6191 73.963 54.4512 74.1765 53.1506L77.3967 52.7694L77.5309 52.7526L78.6653 52.6184L89.6022 51.3209L96.0335 50.5631Z" fill="#24774B"/>
<path d="M95.6787 4.55741C96.0218 3.50382 94.3186 1.11609 94.3186 1.11609C94.3186 1.11609 93.1629 2.68046 93.5563 3.59988C93.9496 4.51929 95.3387 5.611 95.6787 4.55741Z" fill="#070707"/>
<path d="M95.4342 4.27098C96.7028 3.76324 99.1195 6.05796 99.1195 6.05796C99.1195 6.05796 97.2898 6.87979 96.0166 6.22111C95.0683 5.73472 94.3455 4.70857 95.4342 4.27098Z" fill="#070707"/>
<g style="mix-blend-mode:multiply">
<path d="M95.6568 17.9017C95.6793 17.7066 95.7784 17.5285 95.9322 17.4064C96.086 17.2844 96.282 17.2283 96.4771 17.2507C96.5018 17.2548 96.5262 17.2604 96.5503 17.2674C96.6239 17.2518 96.6995 17.2477 96.7744 17.2552C96.9696 17.2782 97.1477 17.3775 97.2698 17.5316C97.3918 17.6856 97.4478 17.8818 97.4255 18.0771L97.3096 19.0361C97.2984 19.1328 97.2683 19.2264 97.2209 19.3115C97.1736 19.3966 97.1099 19.4715 97.0336 19.532C96.9573 19.5924 96.8698 19.6373 96.7761 19.6639C96.6825 19.6905 96.5845 19.6984 96.4877 19.6872C96.4635 19.683 96.4396 19.6774 96.4161 19.6704C96.3018 19.6946 96.1834 19.691 96.0709 19.6599C95.9583 19.6289 95.8548 19.5713 95.7691 19.492C95.6833 19.4127 95.6179 19.314 95.5782 19.2041C95.5385 19.0943 95.5257 18.9766 95.5409 18.8608L95.6568 17.9017Z" fill="#D9D9D9"/>
</g>
<path d="M79.3767 29.214C76.5056 30.7296 75.6075 33.9102 75.7173 39.2452L76.0634 41.7717H78.6341L79.3767 29.214Z" fill="#268E5A"/>
<path d="M92.0703 41.7075C93.13 39.3792 93.29 37.8957 93.4852 36.8787L91.8675 40.0714L89.0345 37.734L88.754 37.9185L88.4841 38.1854C88.4277 39.4051 88.3392 41.4574 88.2828 43.0645C88.2722 43.3481 89.0116 43.464 89.5575 43.4701C90.5242 43.4716 91.5976 42.7413 92.0703 41.7075Z" fill="#268E5A"/>
<path d="M92.1303 31.0024C90.877 30.2675 90.6986 31.1884 87.396 36.0218C87.396 36.0218 88.0684 37.2004 88.137 37.2416C88.2056 37.2828 90.1024 38.1427 90.1024 38.1427L92.7493 33.6173L92.1303 31.0024Z" fill="#3CAF78"/>
<path d="M88.4592 37.4079C87.9865 37.3133 87.1845 36.6821 87.3324 36.2094C87.4803 35.7368 88.8785 35.0323 91.5056 38.184C93.4298 40.4924 89.4594 42.7399 88.0978 38.5118C87.8142 37.629 88.4592 37.4079 88.4592 37.4079Z" fill="#1E5435"/>
<path d="M69.5444 45.6049C76.2837 46.8369 82.2424 45.5515 85.5221 43.5206C87.2167 42.4793 88.7372 41.1781 90.0277 39.6645C90.4226 39.1964 90.7733 38.7375 91.0813 38.2923C91.3008 37.9782 90.7489 37.1274 89.6907 36.3757C89.4308 36.1863 89.1487 36.0296 88.8506 35.9091C88.0211 35.5859 87.5576 35.8817 87.3792 36.1256C86.2527 37.6414 84.8465 38.9275 83.2365 39.9146C79.6809 42.1148 75.0899 43.0449 69.5826 42.682L69.5444 45.6049Z" fill="#E58741"/>
<g style="mix-blend-mode:multiply">
<path d="M89.6907 36.3786C89.4309 36.1892 89.1487 36.0325 88.8506 35.912C88.9527 36.005 89.064 36.1133 89.1845 36.2413C90.0765 37.179 90.2061 38.6809 90.0277 39.6644C90.4226 39.1963 90.7733 38.7373 91.0813 38.2921C91.3008 37.9811 90.7489 37.1241 89.6907 36.3786Z" fill="#D9D9D9"/>
</g>
<path d="M78.7782 67.1921C78.182 64.4263 77.8984 60.6876 79.9415 59.2422C81.9847 57.7967 84.6545 57.074 88.9283 58.8656C93.2021 60.6571 82.4863 61.5674 82.3613 61.6619C82.2362 61.7565 78.7782 67.1921 78.7782 67.1921Z" fill="#6D3232"/>
<path d="M81.7915 46.9816C86.0257 47.1417 89.8329 48.4926 90.298 48.8921C90.4688 49.011 90.5191 49.0629 90.5175 49.2199C90.5252 48.9424 90.5328 48.6512 90.5435 48.3447C89.5265 47.6906 85.9693 46.6294 82.2565 46.4144C81.9775 46.6599 81.8159 46.7956 81.8159 46.7956C81.8037 46.8642 81.8037 46.9267 81.7915 46.9816Z" fill="#E58741"/>
<path opacity="0.5" d="M74.1436 47.7287C74.4485 47.654 74.7824 47.5762 75.1651 47.5107C76.7452 47.2361 78.3414 47.0635 79.9436 46.9938C80.5627 46.9618 81.1817 46.9587 81.7916 46.9816C81.7992 46.9267 81.8069 46.8642 81.816 46.7956C81.816 46.7956 81.9776 46.6599 82.2566 46.4144C81.4758 46.3656 80.6929 46.361 79.9116 46.4007C78.3719 46.4748 76.8377 46.6357 75.3161 46.8825C74.9105 46.9526 74.5247 47.035 74.1619 47.1127C74.1573 47.2987 74.1497 47.5046 74.1436 47.7287Z" fill="#A2A2C9"/>
<path d="M90.4791 50.2856C90.4653 50.0386 90.4577 49.7932 90.4531 49.5492H90.4669C90.4669 49.8404 90.476 50.1347 90.4897 50.4305C90.4943 50.3786 90.4821 50.3329 90.4791 50.2856Z" fill="#CC2B33"/>
<path d="M83.6748 51.443V51.4262C83.7084 51.3918 83.7362 51.3522 83.7571 51.3088C83.7433 51.3473 83.7316 51.3865 83.7221 51.4262L83.6748 51.443Z" fill="#CC2B33"/>
<path d="M89.9021 62.1451C86.691 62.1451 84.6708 63.0783 83.6858 65.617C82.7008 68.1556 84.0487 68.209 84.0487 68.209C84.0487 68.209 88.1929 67.6403 88.7113 67.5884C89.2297 67.5366 90.9984 66.6553 90.9984 66.6553L89.9021 62.1451Z" fill="#4977A5"/>
<path d="M87.3047 67.0881C87.3067 67.8033 87.5917 68.4885 88.0974 68.9942C88.603 69.4999 89.2883 69.7849 90.0035 69.7869H102.235C102.961 69.7774 103.656 69.4948 104.183 68.9955C104.709 68.4962 105.029 67.8169 105.077 67.0927L105.197 64.8239C105.219 64.4756 105.169 64.1265 105.049 63.7985C104.93 63.4706 104.744 63.1708 104.503 62.9179C104.263 62.6651 103.973 62.4645 103.651 62.3289C103.329 62.1933 102.983 62.1255 102.634 62.1297H90.0035C89.2883 62.1317 88.603 62.4167 88.0974 62.9224C87.5917 63.4281 87.3067 64.1133 87.3047 64.8285V67.0881Z" fill="#7AAEED"/>
<path d="M89.731 56.1454V63.734C89.7346 64.5624 90.0658 65.3557 90.6523 65.9407C91.2387 66.5258 92.0328 66.855 92.8612 66.8566H100.252C101.972 66.8566 103.149 65.4676 102.874 63.7706L102.054 58.7557C101.778 57.0587 101.086 55.6697 100.517 55.6697H99.4892" stroke="#2E5389" stroke-width="9.81" stroke-linecap="round" stroke-linejoin="round"/>
<path d="M104.131 62.9455C104.417 64.8087 103.112 66.332 101.234 66.332H94.2718C92.3873 66.332 90.8442 64.9597 90.8442 63.2825V61.6846" stroke="#CCDDD8" stroke-width="9.81" stroke-linecap="round" stroke-linejoin="round"/>
<path d="M104.132 62.9457L103.351 57.8973C103.312 57.6411 103.264 57.3911 103.209 57.1501" stroke="#E1EFEA" stroke-width="9.81" stroke-linecap="round" stroke-linejoin="round"/>
<path d="M103.209 57.1501C102.872 55.6436 102.283 54.5107 101.794 54.5107H100.76" stroke="#7F8A99" stroke-width="9.81" stroke-linecap="round" stroke-linejoin="round"/>
<path d="M90.8442 60.2344V61.6844" stroke="#7F8A99" stroke-width="9.81" stroke-linecap="round" stroke-linejoin="round"/>
<path d="M102.766 54.5062H93.7809C92.1662 54.5062 90.8442 55.726 90.8442 57.2096V59.9129" stroke="#7AAEED" stroke-width="19.61" stroke-linecap="round" stroke-linejoin="round"/>
<path d="M101.544 52.2892H92.5572C91.7792 52.2916 91.0338 52.6018 90.4839 53.1521C89.9339 53.7023 89.6241 54.4479 89.6221 55.2258V59.9174" stroke="#2E5389" stroke-width="19.61" stroke-linecap="round" stroke-linejoin="round"/>
<path d="M30.2256 94.8263C30.2328 95.0851 30.1881 95.3426 30.0941 95.5838C30.0001 95.825 29.8587 96.0449 29.6782 96.2305C29.4978 96.4161 29.282 96.5637 29.0435 96.6644C28.805 96.7651 28.5488 96.817 28.2899 96.817C28.0311 96.817 27.7748 96.7651 27.5364 96.6644C27.2979 96.5637 27.0821 96.4161 26.9016 96.2305C26.7211 96.0449 26.5797 95.825 26.4857 95.5838C26.3917 95.3426 26.347 95.0851 26.3543 94.8263" fill="#404963"/>
<path d="M15.2485 94.8263C15.2558 95.0851 15.2111 95.3426 15.1171 95.5838C15.0231 95.825 14.8817 96.0449 14.7012 96.2305C14.5207 96.4161 14.3049 96.5637 14.0664 96.6644C13.828 96.7651 13.5717 96.817 13.3129 96.817C13.054 96.817 12.7978 96.7651 12.5593 96.6644C12.3208 96.5637 12.105 96.4161 11.9245 96.2305C11.7441 96.0449 11.6027 95.825 11.5087 95.5838C11.4147 95.3426 11.37 95.0851 11.3772 94.8263" fill="#404963"/>
<path d="M45.7925 94.8263C45.7997 95.0851 45.755 95.3426 45.661 95.5838C45.567 95.825 45.4256 96.0449 45.2451 96.2305C45.0647 96.4161 44.8488 96.5637 44.6104 96.6644C44.3719 96.7651 44.1157 96.817 43.8568 96.817C43.598 96.817 43.3417 96.7651 43.1033 96.6644C42.8648 96.5637 42.649 96.4161 42.4685 96.2305C42.288 96.0449 42.1466 95.825 42.0526 95.5838C41.9586 95.3426 41.9139 95.0851 41.9212 94.8263" fill="#56698F"/>
<path d="M33.456 94.8263C33.4633 95.0851 33.4186 95.3426 33.3246 95.5838C33.2306 95.825 33.0892 96.0449 32.9087 96.2305C32.7283 96.4161 32.5124 96.5637 32.274 96.6644C32.0355 96.7651 31.7793 96.817 31.5204 96.817C31.2615 96.817 31.0053 96.7651 30.7668 96.6644C30.5284 96.5637 30.3125 96.4161 30.1321 96.2305C29.9516 96.0449 29.8102 95.825 29.7162 95.5838C29.6222 95.3426 29.5775 95.0851 29.5847 94.8263" fill="#56698F"/>
<path d="M114.178 47.1371H110.542V96.9653H114.178V47.1371Z" fill="#E58741"/>
<path d="M101.135 47.1371H97.5005V96.9653H101.135V47.1371Z" fill="#E58741"/>
<path d="M101.136 47.1371H99.4043V96.9653H101.136V47.1371Z" fill="#D36F54"/>
<path d="M101.137 70.9395V96.9651H97.4746V72.5633L101.137 70.9395Z" fill="#7A392A"/>
<path d="M21.2786 47.1371H17.6421V96.9653H21.2786V47.1371Z" fill="#E58741"/>
<path d="M8.42652 47.1371H4.79004V96.9653H8.42652V47.1371Z" fill="#E58741"/>
<path d="M46.9815 56.9563H10.2812V94.1247H46.9815V56.9563Z" fill="#E0B196"/>
<path d="M46.9816 56.9563H31.6992V94.1247H46.9816V56.9563Z" fill="#EFCBAB"/>
<path d="M75.5523 45.7679C75.8038 45.8594 75.7916 45.9341 75.5233 45.9341H49.5358C49.4067 45.9337 49.2831 45.8824 49.1917 45.7913C49.1004 45.7002 49.0487 45.5767 49.0479 45.4477V44.5237C49.0487 44.3947 49.1004 44.2712 49.1917 44.1802C49.2831 44.0891 49.4067 44.0378 49.5358 44.0374H70.2721C70.593 44.0468 70.9108 44.1023 71.2159 44.202L75.5523 45.7679Z" fill="#43535B"/>
<path d="M76.771 45.4478C76.7706 45.5766 76.7192 45.7001 76.6281 45.7912C76.537 45.8824 76.4135 45.9337 76.2846 45.9341H70.7056C70.5769 45.9333 70.4536 45.8818 70.3626 45.7908C70.2715 45.6998 70.22 45.5765 70.2192 45.4478V44.5238C70.2191 44.4612 70.2318 44.3992 70.2566 44.3418C70.2814 44.2843 70.3177 44.2325 70.3633 44.1896C70.4089 44.1468 70.4628 44.1137 70.5217 44.0925C70.5806 44.0713 70.6432 44.0624 70.7056 44.0663L76.2846 44.3896C76.4148 44.3987 76.5369 44.4561 76.6269 44.5506C76.7169 44.6452 76.7683 44.7699 76.771 44.9004V45.4478Z" fill="#61778C"/>
<path d="M31.6992 83.5628V94.1247H46.9801V79.4766L31.6992 83.5628Z" fill="#EFCBAB"/>
<path d="M114.263 47.1523H4.59863V54.099H114.263V47.1523Z" fill="#E0B196"/>
<path d="M114.27 50.4563H100.881V54.1218H114.27V50.4563Z" fill="#FFE9CF"/>
<path d="M101.039 46.974H4.59863V50.458H101.039V46.974Z" fill="#96725E"/>
<path d="M78.1476 33.5426L76.5527 40.8842" stroke="#5B2727" stroke-width="5.9" stroke-linecap="round" stroke-linejoin="round"/>
<path d="M71.4028 33.3812L72.8849 41.8054" stroke="#37BCF7" stroke-width="5.9" stroke-linecap="round" stroke-linejoin="round"/>
<path d="M74.5713 41.3201C74.5967 41.3214 74.6221 41.3214 74.6475 41.3201C74.8074 41.3196 74.9615 41.2605 75.0806 41.154C75.1998 41.0475 75.2757 40.901 75.294 40.7422L75.8018 36.3616L75.8688 35.7792L75.9984 34.6585C76.0084 34.5735 76.0016 34.4874 75.9783 34.405C75.9551 34.3226 75.9158 34.2457 75.8628 34.1785C75.8097 34.1113 75.744 34.0552 75.6693 34.0135C75.5946 33.9717 75.5124 33.945 75.4274 33.935C75.3424 33.925 75.2563 33.9318 75.1739 33.9551C75.0916 33.9784 75.0146 34.0177 74.9474 34.0707C74.8802 34.1237 74.8242 34.1894 74.7824 34.2641C74.7406 34.3388 74.714 34.421 74.7039 34.506L74.5682 35.6862L74.5012 36.2579L73.9995 40.5897C73.9884 40.6753 73.9945 40.7623 74.0173 40.8455C74.0402 40.9287 74.0793 41.0066 74.1326 41.0745C74.1858 41.1425 74.2519 41.1992 74.3273 41.2414C74.4026 41.2835 74.4855 41.3103 74.5713 41.3201V41.3201Z" fill="#E58741"/>
<path d="M75.3489 36.0051C75.0733 35.9386 74.7837 35.9621 74.5225 36.0722L74.5697 35.656C74.8295 35.5428 75.1192 35.5177 75.3946 35.5843C75.5661 35.6138 75.7285 35.6827 75.8688 35.7856L75.82 36.2018C75.6801 36.1011 75.5189 36.0338 75.3489 36.0051V36.0051Z" fill="#CFF8FF"/>
<path d="M74.0509 38.1548C73.9868 38.199 74.1317 37.644 74.1545 37.5449C74.2305 37.1711 74.286 36.7934 74.3207 36.4136C74.368 35.9821 74.3207 35.3295 74.5525 34.9407C74.5839 34.8959 74.631 34.8645 74.6845 34.8528C74.738 34.8411 74.7939 34.85 74.8412 34.8776C74.8884 34.9053 74.9236 34.9497 74.9396 35.0021C74.9556 35.0544 74.9513 35.1109 74.9276 35.1602C74.8041 35.3676 74.8269 35.761 74.801 35.9943C74.7614 36.3617 74.7355 36.7338 74.6775 37.0997C74.6196 37.4656 74.525 37.8484 74.4427 38.2219C74.4076 38.3652 74.3954 38.446 74.2704 38.5269C74.0387 38.69 73.8221 38.3134 74.0509 38.1548Z" fill="#CFF8FF"/>
<path d="M77.8563 37.8148H70.8242V46.6613H77.8563V37.8148Z" fill="#FFE32A"/>
<path d="M74.296 37.8148H70.8242V46.6613H74.296V37.8148Z" fill="#FFAE2C"/>
<path d="M78.4151 37.8148H70.1724V39.675H78.4151V37.8148Z" fill="#FFE32A"/>
<path d="M77.8563 39.6844H70.8242V40.6145H77.8563V39.6844Z" fill="#E58741"/>
<path d="M74.7832 37.8148H70.1724V39.675H74.7832V37.8148Z" fill="#FFAE2C"/>
<path d="M77.6317 37.8148H76.5796V39.675H77.6317V37.8148Z" fill="white"/>
<path d="M103.333 45.3671H0V49.031H103.333V45.3671Z" fill="#E0B196"/>
<path d="M120 45.3654H102.824V49.0308H120V45.3654Z" fill="#FFE9CF"/>
<path d="M46.98 92.7997H10.2812V94.8825H46.98V92.7997Z" fill="#D36F54"/>
<g style="mix-blend-mode:multiply" opacity="0.68">
<path d="M31.6992 92.7985H10.2812V94.8812H31.6992V92.7985Z" fill="#8E7262"/>
</g>
<path d="M101.165 54.0823H97.4629V56.5157L99.3139 55.299H101.165V54.0823Z" fill="#E58741"/>
<path d="M24.9221 37.2202C24.9373 37.8438 27.0384 38.347 27.6666 38.347H64.9813C65.1283 38.3476 65.2739 38.3188 65.4094 38.262C65.545 38.2053 65.6678 38.1219 65.7705 38.0168C65.8732 37.9117 65.9537 37.787 66.0072 37.6502C66.0608 37.5133 66.0863 37.3671 66.0822 37.2202L65.4723 10.4917C65.464 10.191 65.3391 9.90529 65.124 9.69501C64.9089 9.48474 64.6204 9.36636 64.3196 9.36489H25.4085C25.2614 9.36401 25.1158 9.39274 24.9801 9.44939C24.8444 9.50603 24.7216 9.58942 24.6188 9.69457C24.5161 9.79973 24.4356 9.92451 24.3821 10.0615C24.3286 10.1984 24.3033 10.3447 24.3076 10.4917L24.9221 37.2202Z" fill="#61778C"/>
<path d="M64.0381 37.2202C64.0423 37.367 64.0171 37.5132 63.9637 37.6501C63.9103 37.7869 63.8299 37.9116 63.7274 38.0167C63.6248 38.1219 63.5021 38.2053 63.3666 38.262C63.2311 38.3188 63.0856 38.3477 62.9387 38.347H24.0321C23.7311 38.3463 23.4422 38.2282 23.2269 38.0177C23.0117 37.8073 22.887 37.5212 22.8795 37.2202L22.2696 10.4917C22.265 10.3448 22.2902 10.1985 22.3435 10.0616C22.3968 9.92463 22.4772 9.79984 22.5798 9.69466C22.6824 9.58948 22.8052 9.50606 22.9407 9.4494C23.0763 9.39274 23.2219 9.364 23.3689 9.36489H62.2709C62.5717 9.36636 62.8601 9.48474 63.0753 9.69501C63.2904 9.90529 63.4153 10.191 63.4236 10.4917L64.0381 37.2202Z" fill="#43535B"/>
<g style="mix-blend-mode:multiply" opacity="0.7">
<path d="M49.9358 38.3211L49.7619 38.347H37.4116C38.9745 34.8401 45.5735 26.9588 45.819 26.8978C46.1361 26.8185 47.9414 26.8185 47.9414 26.8185L49.9358 38.3211Z" fill="#A0A6BA"/>
</g>
<path d="M47.0978 25.6888H41.5188C41.1953 25.7048 40.8849 25.8221 40.6316 26.024C40.3782 26.2259 40.1947 26.5023 40.1069 26.8141L38.4831 33.3491L35.9505 43.7752C35.8897 43.9908 35.9053 44.2208 35.9947 44.4263C36.0659 44.5753 36.1796 44.6998 36.3216 44.7842C36.4635 44.8686 36.6273 44.9091 36.7922 44.9005H42.3757C42.6991 44.8844 43.0092 44.7671 43.2623 44.5652C43.5154 44.3633 43.6986 44.0869 43.7861 43.7752L44.797 39.6096L45.1019 38.3426L47.9395 26.8171C48.098 26.1966 47.7214 25.6888 47.0978 25.6888ZM37.0346 40.2638L37.7116 37.6595C37.7696 37.4529 37.8911 37.2696 38.0587 37.1356C38.2264 37.0016 38.4319 36.9235 38.6462 36.9124H42.3437C42.4357 36.9081 42.5273 36.9264 42.6105 36.9657C42.6938 37.005 42.7662 37.0641 42.8214 37.1377C42.8766 37.2114 42.9129 37.2975 42.9272 37.3884C42.9414 37.4794 42.9332 37.5725 42.9033 37.6595L42.2263 40.2638C42.1683 40.4706 42.0466 40.6539 41.8786 40.7877C41.7106 40.9215 41.5047 40.9991 41.2901 41.0093H37.5865C37.1733 41.0124 36.9248 40.68 37.0285 40.2668L37.0346 40.2638Z" fill="#61778C"/>
<path d="M47.2564 27.1039L47.7321 25.9467L47.1375 24.6415L43.7861 24.4052L45.8034 27.0155L47.2564 27.1039Z" fill="#61778C"/>
<path d="M46.3355 24.1732H40.7535C40.4299 24.1894 40.1196 24.3069 39.8665 24.5091C39.6134 24.7113 39.4303 24.988 39.3431 25.3L34.9702 43.301C34.8177 43.9231 35.1897 44.4293 35.8118 44.4293H41.3984C41.7223 44.4128 42.0329 44.2951 42.2862 44.0926C42.5396 43.8902 42.7229 43.6133 42.8103 43.301L47.0826 25.6888L47.1772 25.2969C47.3357 24.6779 46.9561 24.1732 46.3355 24.1732ZM42.8973 37.6625L42.2203 40.2668C42.1623 40.4736 42.0406 40.6569 41.8726 40.7907C41.7045 40.9245 41.4987 41.0021 41.2841 41.0123H37.5866C37.1734 41.0123 36.9249 40.68 37.0286 40.2668L37.7055 37.6625C37.7636 37.4559 37.885 37.2726 38.0527 37.1386C38.2204 37.0046 38.4258 36.9265 38.6402 36.9154H42.3377C42.4296 36.9111 42.5212 36.9294 42.6045 36.9687C42.6878 37.008 42.7602 37.0671 42.8153 37.1407C42.8705 37.2144 42.9069 37.3005 42.9211 37.3915C42.9354 37.4824 42.9272 37.5755 42.8973 37.6625Z" fill="#506175"/>
<path d="M50.8196 43.4688H32.9879C32.7192 43.4688 32.5015 43.6865 32.5015 43.9551V44.8791C32.5015 45.1478 32.7192 45.3655 32.9879 45.3655H50.8196C51.0882 45.3655 51.306 45.1478 51.306 44.8791V43.9551C51.306 43.6865 51.0882 43.4688 50.8196 43.4688Z" fill="#506175"/>
<path d="M51.5766 43.4688H45.9991C45.7305 43.4688 45.5127 43.6865 45.5127 43.9551V44.8791C45.5127 45.1478 45.7305 45.3655 45.9991 45.3655H51.5766C51.8452 45.3655 52.0629 45.1478 52.0629 44.8791V43.9551C52.0629 43.6865 51.8452 43.4688 51.5766 43.4688Z" fill="#61778C"/>
<path d="M38.3158 39.9541C38.2957 39.9866 38.2849 39.9974 38.2818 39.9882C38.2787 39.9789 38.2895 39.968 38.3158 39.9541Z" fill="#BFCBD1"/>
<path d="M116.365 40.4725V45.434H92.457V44.3149H93.102V41.5932H92.457V40.4725H116.365Z" fill="#E58741"/>
<path d="M103.844 40.4725V45.434H92.457V44.3149H93.102V41.5932H92.457V40.4725H103.844Z" fill="#E58741"/>
<path d="M102.619 41.5933H92.9146V44.3149H102.619V41.5933Z" fill="#D1E0E5"/>
<path d="M38.0952 40.8003L38.7722 38.1915C38.8299 37.9848 38.9513 37.8015 39.1191 37.6676C39.2868 37.5338 39.4925 37.4562 39.7069 37.4459H42.9088C42.9075 37.3725 42.8914 37.3002 42.8614 37.2332C42.8314 37.1662 42.7882 37.106 42.7344 37.0562C42.6806 37.0063 42.6172 36.9679 42.5481 36.9431C42.4791 36.9184 42.4057 36.9079 42.3325 36.9122H38.6396C38.4252 36.9226 38.2195 37.0001 38.0518 37.134C37.884 37.2678 37.7626 37.4511 37.7049 37.6578L37.0279 40.2605C36.9242 40.6737 37.1728 41.0076 37.586 41.0076H38.0769C38.0731 40.938 38.0793 40.8682 38.0952 40.8003V40.8003Z" fill="#334251"/>
<path d="M79.7843 58.6838C79.5281 58.6838 79.4122 58.632 79.0859 58.5161C79.3085 58.5725 79.5403 58.6228 79.7843 58.6838Z" fill="#492323"/>
<path d="M104.046 82.2135C103.963 82.169 103.867 82.1575 103.777 82.1813C103.687 82.2051 103.609 82.2624 103.559 82.3416C103.512 82.4232 103.499 82.5202 103.522 82.6116C103.546 82.7029 103.605 82.7812 103.686 82.8295C103.79 82.8693 103.882 82.9369 103.95 83.0251C104.019 83.1133 104.062 83.2186 104.075 83.3296C104.077 83.4234 104.115 83.5128 104.181 83.5792C104.247 83.6457 104.336 83.6841 104.43 83.6864C104.524 83.6856 104.615 83.6478 104.681 83.581C104.748 83.5143 104.786 83.424 104.787 83.3296C104.776 83.0939 104.701 82.8657 104.57 82.6691C104.44 82.4725 104.259 82.3151 104.046 82.2135V82.2135Z" fill="white"/>
</svg>
