<svg width="100" height="127" viewBox="0 0 100 127" fill="none" xmlns="http://www.w3.org/2000/svg">
<path d="M54.8044 107.763C53.9962 107.954 53.2361 108.31 52.5711 108.808C51.1979 108.383 50.598 107.329 51.289 106.125C52.1432 104.192 53.0946 102.304 54.1395 100.467C54.816 99.4033 55.2265 98.1703 55.9175 96.9662C56.6084 95.7621 57.9614 93.6343 58.836 92.024C59.2394 91.2511 59.5166 90.4185 59.657 89.558C59.6079 87.2857 59.5588 85.0134 59.3839 82.5864L51.6346 84.9049C52.0022 87.3679 52.2194 89.8511 52.285 92.3405C52.2643 94.35 51.8185 96.3324 50.9768 98.1572C50.408 99.6161 49.6942 101.014 48.8461 102.33C47.2506 104.59 44.8618 106.165 42.1563 106.742C41.0201 106.897 39.9014 107.162 38.8158 107.531C38.3831 107.734 37.8996 107.803 37.4275 107.729C36.9553 107.655 36.5161 107.442 36.1662 107.116C36.0014 105.966 36.6201 105.463 37.5192 104.989C38.7615 104.26 39.8659 103.319 40.7817 102.207C41.2072 101.688 41.4817 101.061 41.5753 100.396C41.6688 99.731 41.5778 99.053 41.3122 98.4361C41.1492 97.6955 40.7764 97.0175 40.2382 96.4833C39.4547 95.8357 38.7248 96.0438 38.3287 97.1366C37.7237 99.323 36.8405 101.423 35.7007 103.384C35.6277 103.559 35.5204 103.717 35.385 103.849C35.2497 103.981 35.0891 104.084 34.9129 104.153C34.1017 104.809 33.1663 105.295 32.1629 105.581C31.1594 105.867 30.1085 105.948 29.0731 105.818C26.7642 105.599 24.4398 105.596 22.1304 105.811C21.1834 105.823 20.2625 106.123 19.4909 106.672C16.3151 108.612 12.7766 109.948 9.46058 111.873L8.25214 112.599C6.53633 114.122 4.44324 115.182 2.9934 116.875L1.17063 116.687C1.06901 116.017 1.18934 115.333 1.51322 114.738C2.56124 112.688 4.00114 110.862 5.75145 109.365L13.6396 102.952C13.654 102.812 13.7942 102.826 13.9489 102.7C17.1946 100.832 20.1191 98.4541 22.6104 95.6578C23.0714 95.0547 23.3338 94.3232 23.3613 93.5646C23.3887 92.8059 23.1799 92.0574 22.7636 91.4225C22.5894 91.1933 22.3596 91.0123 22.096 90.8967C21.8323 90.7811 21.5435 90.7347 21.2569 90.762C20.9704 90.7892 20.6954 90.8891 20.4583 91.0522C20.2211 91.2154 20.0294 91.4363 19.9015 91.6942C19.3479 92.41 18.8441 93.1629 18.3939 93.9478C18.34 94.1637 18.2403 94.3656 18.1016 94.5396C17.9628 94.7136 17.7882 94.8557 17.5896 94.9562C17.391 95.0567 17.1732 95.1133 16.9508 95.1221C16.7284 95.1309 16.5067 95.0918 16.3008 95.0073C16.1836 94.8425 16.1075 94.6521 16.0788 94.452C16.0502 94.2518 16.0698 94.0477 16.136 93.8567L18.6122 82.2089C18.9669 80.7535 19.6309 79.3915 20.559 78.2157C21.4871 77.0399 22.6577 76.0778 23.9909 75.3948C24.9426 74.7165 26.0015 74.203 27.1233 73.8756C28.4447 73.3648 29.8791 73.219 31.2762 73.4536L32.8186 73.6126C33.06 72.6455 32.4167 72.0124 31.9426 71.1133L32.3907 66.7667C30.1184 66.8158 27.9184 66.1639 25.7863 66.2275C20.3584 70.7692 15.4625 75.6492 10.4263 80.5147L9.5417 80.8486L7.6799 79.6647C7.55526 79.2367 7.53942 78.7844 7.63383 78.3487C7.72823 77.913 7.9299 77.5078 8.22053 77.1698C9.75711 74.6359 11.5597 72.271 13.2364 69.7515C14.4511 67.587 15.802 65.5018 17.281 63.5085C18.6195 61.5209 19.9725 59.3932 21.1709 57.3911C21.9139 56.604 22.6141 55.7774 23.2683 54.915C23.3116 54.4944 23.8725 54.5522 24.3076 54.4554C27.8194 53.751 31.3716 53.2654 34.9436 53.0012C35.3194 52.5846 35.569 52.0698 35.6634 51.5167C36.8295 48.5444 38.4054 45.7497 40.3454 43.2138C41.8945 41.1149 43.5681 39.1107 45.357 37.2121C47.2319 35.0329 49.2885 33.0169 51.5048 31.1859C55.1153 28.4979 58.9627 26.1436 62.9994 24.1522C65.867 22.4853 68.8584 21.0408 71.947 19.8316L78.8695 17.2861C81.3688 16.4102 83.9938 15.6889 86.3673 14.6583C89.951 13.6992 93.4173 12.3457 96.7027 10.6225C97.1667 10.2452 97.7131 10.4433 98.245 10.7815C98.777 11.1198 98.55 11.9466 98.352 12.493L97.5699 15.955C96.2432 19.8705 95.2594 23.894 94.6297 27.98L94.5575 28.6811C93.9773 31.1121 93.5342 33.5738 93.2304 36.0546C93.0714 37.5969 92.632 39.1103 92.4585 40.7929C92.2673 41.8571 91.8738 42.8748 91.2992 43.7909C90.5504 45.5558 90.6429 47.4075 89.3478 48.9744C88.0526 50.5413 86.9757 54.1146 86.1402 56.7208C85.8923 57.2143 85.5584 57.6597 85.1543 58.0362C84.7041 58.6917 84.3873 59.4295 84.222 60.2073C83.5081 60.8459 82.904 61.5974 82.4339 62.4319C81.6181 63.9305 80.6653 65.3502 79.5877 66.673C78.5366 68.245 77.2449 69.642 75.76 70.8129C74.9577 71.7221 74.0297 72.4766 73.213 73.5261C73.5602 74.24 73.6754 75.0446 73.5426 75.8273L72.1982 88.8671C72.1957 89.4598 72.0644 90.0449 71.8133 90.5818C71.5621 91.1187 71.1973 91.5945 70.744 91.9764C68.9029 93.5759 67.1643 95.2898 65.5387 97.1079L62.3442 100.605C60.5197 102.643 58.4775 104.476 56.2542 106.07C55.9102 106.239 55.6042 106.476 55.3549 106.767C55.1057 107.058 54.9183 107.397 54.8044 107.763ZM7.31836 110.661L7.6277 110.409C8.76386 110.384 9.28569 109.446 10.1848 108.972C12.1949 108.262 14.1365 107.372 15.9856 106.311C17.6099 105.189 19.4224 104.368 21.3368 103.887C22.7114 103.663 24.0982 103.522 25.4897 103.465C26.4712 103.261 27.4849 103.269 28.4631 103.488C29.3899 103.679 30.3401 103.729 31.2818 103.637C31.8398 103.596 32.3826 103.437 32.8743 103.17C33.366 102.903 33.7953 102.534 34.1338 102.089C35.2373 100.4 35.9654 98.4937 36.2689 96.4992C36.3333 95.96 36.569 95.4557 36.9414 95.0605C37.3137 94.6653 37.803 94.3999 38.3374 94.3035C39.6427 94.0129 41.0882 93.7368 42.0798 95.1144C42.7145 95.9957 43.2347 96.954 43.6279 97.9664C43.8482 99.2324 43.8585 100.526 43.6582 101.796C42.8789 102.811 42.0225 103.765 41.0968 104.649C42.0568 104.653 43.0063 104.448 43.8793 104.049C44.7524 103.649 45.5282 103.065 46.1531 102.336C50.4882 97.3983 50.786 91.7609 49.29 85.6551C44.8897 85.1249 40.741 83.3179 37.356 80.457C36.3311 80.7765 35.1125 80.2257 33.9619 80.3905C32.8113 80.5553 30.4711 79.8889 29.4129 81.9054C32.2707 83.0502 33.0353 85.2546 32.1319 87.1453C31.9047 87.3041 31.6392 87.3992 31.3628 87.4205C31.0865 87.4419 30.8095 87.3888 30.5606 87.2667C30.0865 86.3676 30.3568 85.1202 29.6991 84.6272C29.0414 84.1343 27.7795 84.0042 26.9238 84.0577C26.7436 83.7857 26.6289 83.4757 26.5885 83.1519C26.5482 82.8282 26.5833 82.4995 26.6911 82.1916C27.1269 81.1195 27.8418 80.1836 28.7614 79.481C29.681 78.7785 30.7719 78.3349 31.9209 78.1962L35.4551 78.2772C35.318 77.787 35.0569 77.3404 34.6968 76.9806C34.3367 76.6208 33.89 76.3599 33.3997 76.2231C32.3092 75.8995 31.1998 75.6432 30.0779 75.4556C29.0994 75.301 28.0971 75.4445 27.2014 75.8675C25.8706 76.5124 24.6048 77.2835 23.4214 78.1702C22.4428 78.9086 21.6993 79.9148 21.2806 81.0669C20.7989 82.556 20.4516 84.0852 20.2427 85.6362C19.7868 86.7899 19.4722 87.9945 19.306 89.2239C19.7266 89.2672 20.036 89.0157 20.4711 88.9189C23.5601 87.8203 25.7124 90.3095 25.5635 93.1282C25.5057 93.689 25.5736 94.4046 25.5303 94.8252C25.065 95.8308 24.3932 96.7272 23.5586 97.456C21.6929 99.8321 19.3688 101.809 16.7242 103.27C16.4246 103.345 16.1579 103.517 15.9654 103.758C14.5444 105.171 12.9009 105.993 11.4944 107.265C10.8494 107.639 10.3785 108.252 10.1848 108.972C10.0561 108.886 9.90255 108.844 9.74785 108.854C9.59316 108.864 9.44596 108.924 9.32905 109.026L7.6277 110.409L7.31836 110.661L6.85435 111.038C6.8399 111.178 6.69968 111.164 6.67077 111.444L6.99457 111.052L7.31836 110.661ZM10.7733 77.1496C11.7892 76.6225 12.5829 75.7493 13.0109 74.6879C13.2066 74.6876 13.4 74.6466 13.579 74.5675C13.7579 74.4883 13.9184 74.3728 14.0502 74.2283C14.3488 73.7337 14.7296 73.2937 15.1763 72.9273C17.2014 71.1523 19.1008 69.2225 21.2662 67.4619C23.4316 65.7013 23.3203 65.4064 24.5576 64.4004C24.8539 64.1495 25.2067 63.9743 25.5856 63.89C25.9646 63.8056 26.3584 63.8146 26.7331 63.9162C28.659 64.374 30.6284 64.6245 32.6076 64.6635C33.3708 62.7583 33.3072 60.6262 34.0849 58.5809C34.4625 57.437 34.4907 56.2066 34.1659 55.0466C33.0531 55.4121 31.8847 55.5795 30.714 55.541C29.2171 55.5659 27.7266 55.7446 26.2662 56.0743C25.2812 56.265 24.3843 56.769 23.7091 57.5111C22.4284 58.9378 21.6652 60.843 20.5102 62.4244C19.3553 64.0057 17.1567 67.4633 15.3396 69.9684C14.231 71.3545 13.4365 72.9648 13.0109 74.6879C11.7056 74.9785 11.3096 76.0713 10.7733 77.1496C10.237 78.2279 10.4784 77.2609 10.5897 77.5558C10.6463 77.5041 10.6918 77.4414 10.7233 77.3716C10.7549 77.3018 10.7719 77.2262 10.7733 77.1496ZM41.9124 44.509C39.7551 47.1964 38.2221 50.3296 37.424 53.6821C38.1487 55.233 39.0991 56.6681 40.2442 57.9405C41.6564 59.3615 43.2233 60.6566 44.7902 61.9518C45.755 63.0618 46.9054 63.9955 48.19 64.7113C50.95 66.5146 53.8759 68.05 56.9281 69.2965C59.8002 70.3011 62.6291 71.7264 65.854 72.0589C66.9448 72.0458 68.0075 72.4053 68.8664 73.0779C68.9343 73.7935 68.2188 73.8614 68.161 74.4223C68.1032 74.9831 69.6788 73.4451 70.2974 72.9421C73.8667 70.1899 77.0184 66.935 79.6542 63.279C81.0361 60.8708 82.5438 58.6173 83.9257 56.2091C86.0729 52.323 87.824 48.231 89.1527 43.9947L89.848 41.374C90.2014 40.4632 90.2045 39.4537 89.8566 38.5408C88.6672 35.4084 86.9545 32.5006 84.7917 29.9415C83.1279 28.2112 80.6908 27.1098 78.7177 25.631C76.572 24.1678 73.9627 23.5457 71.3876 23.8834C69.2555 23.9469 67.2781 23.8848 65.4509 25.1134C63.6238 26.3421 61.7288 26.8552 59.9161 27.9437C58.1035 29.0321 55.3772 30.7349 53.2263 32.3553C51.0773 34.2053 49.0299 36.1702 47.0931 38.2413C45.1937 40.1711 43.7005 42.2844 41.9268 44.3688L41.9124 44.509ZM54.4909 81.9402C59.4605 80.4687 63.9126 78.5188 67.3876 75.051C67.0393 74.3066 66.464 74.389 65.9031 74.3312C64.4464 74.1227 63.0112 73.785 61.6143 73.3222L56.6968 71.5399C54.3042 70.7827 52.0314 69.6896 49.9463 68.2932C49.2117 67.723 48.4012 67.2578 47.5381 66.9113C46.4822 66.5142 45.5299 65.8832 44.7527 65.0654C43.4822 63.7692 42.1422 62.543 40.7385 61.3924L39.5778 60.2808C38.5573 59.1837 37.5223 58.2267 36.5163 56.9894C36.0436 60.1998 34.7585 63.0431 34.7498 65.8763L35.8672 67.4085C37.2701 69.9224 39.1 72.1729 41.2747 74.0593C42.9963 75.2287 44.3796 76.9301 46.425 77.7077L49.7713 79.6115C50.1626 79.9231 50.6333 80.1189 51.1301 80.1767C52.4321 80.3216 53.6319 80.9511 54.4909 81.9402ZM54.2522 104.872C56.5825 103.554 58.674 101.854 60.439 99.8413C63.45 96.7508 66.195 93.4912 69.3317 90.5555C69.8646 90.0647 70.1882 89.3877 70.2352 88.6647C70.5821 85.2996 70.6342 82.0458 70.8265 78.8065L71.2312 74.8805C68.2055 77.3486 64.991 79.5757 61.6172 81.5413C61.7921 83.9683 61.5463 86.3519 61.8759 88.6531C62.0816 89.6042 61.9287 90.5977 61.4466 91.4429L59.3448 95.3357C58.3051 96.5323 57.5736 97.9649 57.2141 99.5088C57.1996 99.649 57.045 99.7748 57.0305 99.915C57.0161 100.055 55.9724 101.931 55.1701 102.841C54.3679 103.75 54.0585 104.001 54.2522 104.872ZM92.4687 28.324C93.3107 23.2712 94.488 18.2799 95.9929 13.3834L80.8571 18.6247C82.2693 20.0456 84.4983 20.4171 85.4465 22.2153C86.3948 24.0135 84.2525 22.8008 83.6628 23.0234C83.073 23.246 79.8525 21.4969 78.6382 19.5296L72.6148 21.6009C73.1468 21.9392 73.5963 21.7021 74.017 21.7455C76.5593 21.8934 78.9904 22.8381 80.9655 24.4457L83.6107 26.2772C85.4546 27.4153 87.0368 28.9306 88.2536 30.7235C89.0617 32.3437 90.0447 33.8706 91.1851 35.2769C91.4699 34.2828 91.5324 33.2382 91.3683 32.2172C91.2042 31.1962 90.8174 30.2239 90.2354 29.3691C90.7139 28.8516 90.8975 28.4455 91.347 28.2084L92.4687 28.324ZM51.5999 82.4924C50.4288 82.2313 49.2807 81.876 48.1668 81.4299L43.2247 78.5114L41.5176 77.2018C40.8051 76.3451 39.9765 75.5919 39.0559 74.9642C38.0086 74.1283 37.0609 73.1747 36.2314 72.1223C35.6628 71.1408 34.9985 70.2179 34.2482 69.3672C34.6977 71.9931 35.7512 74.4787 37.3256 76.6279C38.3444 78.1741 39.6495 79.5111 41.1706 80.5669C43.315 81.8584 45.6654 82.7718 48.1191 83.2671C49.3344 83.4259 50.5667 83.1516 51.5999 82.4924Z" fill="black"/>
<path d="M3.2017 117.605L0.677861 117.344L0.721229 116.924C0.561255 116.541 0.487767 116.127 0.50601 115.713C0.524252 115.298 0.633776 114.893 0.826763 114.526L0.966977 114.54C1.96625 112.293 3.48115 110.313 5.38878 108.761L10.9569 104.234L13.1222 102.473L13.7264 102.11C16.8577 100.185 19.6827 97.8015 22.1075 95.039C22.4962 94.5887 22.7144 94.0162 22.7239 93.4215C22.7334 92.8268 22.5336 92.2476 22.1595 91.7852C22.0877 91.6754 21.9798 91.5941 21.8545 91.5553C21.7291 91.5165 21.5942 91.5227 21.4729 91.5727C21.2773 91.5729 21.0838 91.614 20.9049 91.6931C20.726 91.7723 20.5655 91.8878 20.4336 92.0323L19.9262 92.8302L19.0806 94.1601C19.0003 94.4671 18.856 94.7537 18.6573 95.0012C18.4586 95.2486 18.2099 95.4513 17.9275 95.5961C17.6451 95.7408 17.3353 95.8244 17.0184 95.8412C16.7015 95.858 16.3846 95.8078 16.0884 95.6937L15.808 95.6648C15.5782 95.4164 15.4218 95.1091 15.356 94.7772C15.2901 94.4453 15.3175 94.1016 15.4351 93.7842L16.5019 88.9346C17.0136 86.7201 17.5398 84.3654 17.9257 81.9962C18.2822 80.4473 18.9788 78.9972 19.9651 77.7508C20.9514 76.5045 22.2027 75.4933 23.6283 74.7904C23.7829 74.6647 24.0778 74.5534 24.2469 74.2874L26.9153 73.1455C28.3299 72.6141 29.8626 72.4782 31.3487 72.7523L32.1899 72.8391L31.7014 72.0802L31.3386 71.476L31.1983 71.4615L31.6176 67.3953C30.7206 67.4435 29.8217 67.3508 28.9535 67.1207L26.009 66.8171C20.5812 71.3588 15.5306 76.3646 10.9584 80.8528L10.0593 81.3269L9.35827 81.2546C8.5733 80.9909 7.84613 80.5792 7.21605 80.0419L7.07584 80.0274C6.86561 79.4979 6.79861 78.9224 6.8816 78.3588C6.96458 77.7952 7.19461 77.2634 7.54853 76.817C8.3797 75.6273 9.22532 74.2975 10.1967 73.1223C11.0648 71.933 11.8557 70.6893 12.5644 69.3987C14.0721 67.1452 15.2704 65.1432 16.5945 63.2958C17.9186 61.4485 18.4404 60.5104 19.2861 59.1805C20.1317 57.8506 20.1317 57.8507 20.6391 57.0527L21.596 56.0178C22.0422 55.6812 22.384 55.2251 22.5818 54.7024C22.6889 54.4755 22.8609 54.2854 23.076 54.1563C23.2911 54.0271 23.5397 53.9646 23.7903 53.9767L24.0707 54.0056C26.3393 53.3774 28.6593 52.9527 31.0033 52.7365L34.5954 52.2567C34.7946 52.0276 34.9223 51.7452 34.9625 51.4443C36.1417 48.3614 37.777 45.4729 39.8137 42.8754C41.3194 40.695 43.0003 38.6409 44.8397 36.7335C46.7927 34.5367 48.8988 32.4809 51.1421 30.5815C54.3313 28.1794 57.7265 26.0636 61.2881 24.259L62.6367 23.5478L64.4349 22.5995C66.7322 21.3018 69.1218 20.1747 71.5844 19.2272L73.9434 18.3368L78.5069 16.6818L81.301 15.6945L86.1449 14.0683L89.3741 12.9842C91.7896 12.2313 94.1232 11.2376 96.34 10.0181C96.6804 9.80028 97.0795 9.6922 97.4833 9.70849C97.8871 9.72478 98.2761 9.86465 98.5979 10.1092L98.7381 10.1237C99.0118 10.4331 99.1889 10.8159 99.2475 11.2249C99.3061 11.6339 99.2436 12.0511 99.0676 12.4249L98.9809 13.2662C98.7506 14.1972 98.4668 15.1142 98.1309 16.0126C96.9875 19.9256 96.0576 23.8979 95.3454 27.9119L95.2587 28.7532C94.7144 30.6125 94.3747 32.5256 94.2453 34.4586C94.215 34.979 94.1143 35.493 93.9461 35.9865C93.8872 36.786 93.758 37.5787 93.5602 38.3556C93.4879 39.0567 93.2609 39.8835 93.1742 40.7248C93.0416 41.6954 92.7041 42.6266 92.184 43.4568L92.1262 44.0176L91.363 45.9228C91.1934 47.1484 90.7329 48.3156 90.0201 49.3269C89.5979 50.9454 88.961 52.5001 88.1265 53.9496C87.5902 55.028 87.0683 55.9661 86.6867 56.9187C86.5921 57.3142 86.4087 57.6829 86.1504 57.997C85.9958 58.1228 85.8411 58.2485 85.8266 58.3887L85.7833 58.8094C85.4075 59.226 85.1578 59.7408 85.0634 60.2939L85.0345 60.5743L84.7252 60.8258C84.0281 61.3308 83.471 62.0049 83.1062 62.7845C82.6237 63.7202 82.0576 64.6104 81.4149 65.4442C80.9482 65.9618 80.5547 66.5411 80.2455 67.1658C79.3831 68.4168 78.3611 69.5499 77.2056 70.5366L76.2632 71.4314L75.7992 71.8087C75.1782 72.3707 74.5954 72.9733 74.0544 73.6126C74.282 74.3523 74.3466 75.1324 74.2438 75.8994L72.8994 88.9392C72.8759 89.6386 72.704 90.3249 72.3949 90.9527C72.0859 91.5805 71.6469 92.1353 71.107 92.5804C69.3694 94.1523 67.7296 95.8288 66.1966 97.6006L63.0165 100.957C61.1155 103.108 58.9676 105.027 56.6172 106.674C56.013 107.037 55.549 107.414 55.4912 107.975L55.4478 108.396L55.0272 108.352C54.475 108.439 53.9588 108.681 53.5383 109.049L53.0887 109.286L52.7794 109.537L52.499 109.509C51.6605 109.244 50.958 108.663 50.5403 107.89C50.4328 107.567 50.3952 107.225 50.4301 106.886C50.465 106.548 50.5715 106.221 50.7427 105.927C51.1646 105.191 51.5281 104.423 51.8297 103.63C52.2833 102.397 52.88 101.222 53.6077 100.129C54.0135 99.5015 54.3229 98.8169 54.5256 98.0978C54.7237 97.5514 55.0475 97.1597 55.2455 96.6133C55.4435 96.0669 56.2747 94.8773 56.7676 94.2196C57.2605 93.5619 57.7968 92.4835 58.164 91.6712C58.5925 91.0664 58.8601 90.3625 58.9417 89.6258C58.8347 87.9143 58.868 86.2173 58.761 84.5058L58.8622 83.5243L52.4326 85.4121C52.5109 86.0473 52.6355 86.6758 52.8055 87.2927C53.1367 88.9354 53.2495 90.6147 53.1409 92.2869C53.0676 94.4302 52.6098 96.5429 51.7893 98.5242L51.2675 99.4623C50.8847 100.633 50.292 101.724 49.5184 102.683C47.7909 105.091 45.2496 106.792 42.3646 107.472L41.3542 107.651C40.6089 107.703 39.8756 107.866 39.1787 108.135C38.6129 108.441 37.9597 108.544 37.3274 108.427C36.6951 108.31 36.1217 107.981 35.7023 107.493L35.4219 107.465C35.3788 106.878 35.52 106.293 35.8259 105.791C36.1317 105.289 36.5868 104.895 37.1276 104.665C38.1846 104.02 39.1297 103.208 39.9261 102.261L40.2354 102.009C40.5513 101.571 40.7578 101.064 40.8375 100.53C40.9172 99.9957 40.8679 99.4502 40.6937 98.939C40.5139 98.3156 40.1833 97.7462 39.731 97.281L39.3103 97.2377C39.1701 97.2232 39.1557 97.3634 38.9865 97.6294C38.3653 99.9038 37.4733 102.095 36.3297 104.157C36.0685 104.595 35.6879 104.949 35.2325 105.178C34.3368 105.887 33.3065 106.408 32.2039 106.708C31.1013 107.009 29.9493 107.083 28.8174 106.925C27.1306 106.687 25.4212 106.654 23.7264 106.826L22.0149 106.933C21.2493 106.986 20.5034 107.198 19.825 107.557C18.0793 108.653 16.2735 109.649 14.4159 110.542C12.8188 111.221 11.2699 112.008 9.78018 112.898L8.71195 113.638L6.60441 114.838C5.42499 115.475 4.3757 116.328 3.51103 117.353L3.2017 117.605ZM1.80391 116.043L2.64519 116.13C3.57865 115.178 4.61631 114.335 5.73857 113.615L6.49746 113.126L6.08116 111.666C6.02196 111.476 6.01446 111.273 6.05941 111.078C6.10436 110.884 6.20016 110.705 6.33702 110.559L6.80103 110.182L8.82618 108.407L9.71082 108.073C10.0591 107.577 10.487 107.143 10.9771 106.786L12.8187 105.418L15.448 103.28L16.3616 102.665C18.9544 101.247 21.2279 99.311 23.0413 96.9774L23.5197 96.4599C24.1115 95.9672 24.5674 95.3313 24.8438 94.6125C24.8727 94.3321 24.8048 93.6166 24.8626 93.0558C24.9294 92.4605 24.8369 91.8582 24.5946 91.3104C24.3523 90.7626 23.9689 90.2889 23.4836 89.9378C23.0972 89.6177 22.6245 89.4194 22.1253 89.3679C21.6262 89.3165 21.123 89.4142 20.6794 89.6487L20.5391 89.6342C20.1356 89.8399 19.6865 89.9399 19.2339 89.9248L19.2917 89.3639L18.5906 89.2917C18.6354 88.3426 18.8276 87.4063 19.1602 86.5163C19.3293 86.2503 19.3726 85.8297 19.5562 85.4235C19.7398 85.0173 19.7976 84.4565 19.8555 83.8956C19.9627 82.7952 20.2652 81.7228 20.7488 80.7285C21.227 79.5215 21.9682 78.4361 22.9185 77.5513C24.1738 76.6302 25.5375 75.8665 26.9789 75.2776C27.926 74.6925 29.0655 74.5045 30.1503 74.7543L33.6123 75.5364C34.1947 75.7169 34.7293 76.0255 35.177 76.4394C35.6247 76.8533 35.9742 77.3622 36.1997 77.9287L36.6594 78.968L35.117 78.809L31.8632 78.7569C30.8612 78.9175 29.9191 79.3391 29.1318 79.9793C28.3444 80.6195 27.7395 81.4557 27.3778 82.4039C27.2087 82.6699 27.32 82.9648 27.3056 83.105L27.4458 83.1194C27.961 83.0307 28.4898 83.0625 28.9906 83.2125C29.4915 83.3625 29.9508 83.6265 30.3324 83.9838C30.6603 84.4609 30.848 85.0202 30.8745 85.5985C30.9858 85.8934 30.9424 86.314 31.2084 86.4831C31.2316 86.5157 31.2615 86.5429 31.2961 86.563C31.3307 86.5831 31.3691 86.5956 31.4089 86.5997C31.4487 86.6038 31.4889 86.5994 31.5268 86.5868C31.5648 86.5742 31.5996 86.5536 31.629 86.5265C31.8651 85.8918 31.8869 85.1973 31.6912 84.549C31.1544 83.5407 30.2844 82.7498 29.2295 82.3114L28.5284 82.2391L28.6007 81.5381C29.0264 80.8033 29.6703 80.2194 30.443 79.8674C31.2158 79.5153 32.0789 79.4127 32.9127 79.5736L35.4365 79.8339C36.0241 80.066 36.6749 80.0829 37.2737 79.8816L37.5541 79.9105L37.8057 80.2198C41.0912 82.9568 45.0912 84.6968 49.3335 85.2343L49.8943 85.2921L49.851 85.7128C51.6665 92.8434 50.5129 98.5343 46.5016 103.08C45.8145 103.804 44.9867 104.38 44.069 104.773C43.1513 105.166 42.163 105.367 41.1649 105.364L40.9422 104.774L40.4103 104.436L40.4392 104.156L40.5794 104.17C41.0527 103.832 41.4387 103.386 41.7055 102.869L42.8171 101.709C42.8604 101.288 42.7636 100.853 42.7925 100.572C42.9267 99.8192 42.91 99.0468 42.7434 98.3001C42.4458 97.3185 41.963 96.4029 41.321 95.6028C40.6922 94.8295 39.851 94.7427 38.391 95.159C38.0053 95.2298 37.6494 95.4139 37.3688 95.6879C37.0881 95.9618 36.8955 96.3131 36.8154 96.697C36.5717 98.7525 35.8342 100.718 34.6659 102.427C34.2886 102.972 33.7958 103.427 33.2227 103.76C32.6496 104.092 32.0102 104.295 31.3499 104.352L30.9293 104.309C30.0349 104.405 29.1311 104.359 28.2508 104.175C27.6963 104.025 27.1137 104.014 26.5538 104.141L25.4321 104.026L22.4153 104.423L21.4338 104.322C19.7079 104.708 18.0844 105.459 16.6723 106.523L16.3919 106.494C14.6646 107.56 12.8162 108.416 10.886 109.044L10.7993 109.886L10.0982 109.813L9.6342 110.191C9.1875 110.632 8.6119 110.92 7.99067 111.013L7.34308 111.797L6.49746 113.126L7.87502 112.135C8.22125 111.768 8.63694 111.474 9.09792 111.269C10.591 110.335 12.1444 109.501 13.7481 108.773C15.5554 107.988 17.3062 107.08 18.988 106.054C19.9077 105.463 20.9701 105.132 22.0626 105.095L23.7741 104.988C25.5632 104.814 27.3668 104.858 29.1455 105.117C30.0728 105.253 31.0183 105.195 31.9221 104.947C32.8258 104.699 33.6681 104.265 34.3956 103.674C34.7049 103.423 34.9998 103.312 35.0287 103.031C36.2003 101.138 37.0813 99.0789 37.6422 96.924C37.7282 96.6021 37.889 96.3051 38.1116 96.0571C38.3341 95.8092 38.6122 95.6174 38.9229 95.4973C39.2366 95.4088 39.5682 95.4055 39.8835 95.4878C40.1988 95.5702 40.4865 95.7351 40.7168 95.9656C41.3346 96.6018 41.7894 97.3779 42.0423 98.2278C42.3076 98.9728 42.3786 99.7731 42.2486 100.553C42.1186 101.333 41.7919 102.067 41.2993 102.686L40.99 102.937C40.1244 104.004 39.0712 104.904 37.8821 105.593C37.1232 106.081 36.9541 106.347 36.9107 106.768C37.1598 106.938 37.4529 107.031 37.7543 107.037C38.0557 107.043 38.3523 106.961 38.6078 106.801L41.0781 106.206L42.0885 106.026C44.6315 105.497 46.8692 104 48.3288 101.852C48.9354 100.912 49.4638 99.9236 49.9087 98.8971C50.0778 98.6312 50.1212 98.2105 50.3048 97.8043C51.1142 96.0689 51.55 94.1827 51.5841 92.2681C51.6757 90.6418 51.5581 89.0105 51.2343 87.4141C51.0457 86.6133 50.9401 85.7952 50.9192 84.9727L50.977 84.4118L60.2007 81.5368L60.3178 84.5246C60.4248 86.2361 60.3915 87.9331 60.4985 89.6446C60.406 90.5791 60.0696 91.4729 59.5227 92.2363L57.9717 94.9105L56.4496 97.3042L55.8844 98.663C55.5571 99.465 55.1457 100.23 54.6571 100.945C54.0187 101.97 53.48 103.053 53.0483 104.18L51.9613 106.477C51.8393 106.738 51.7625 107.018 51.7343 107.304C51.8031 107.48 51.9066 107.641 52.0387 107.776C52.1708 107.912 52.3288 108.019 52.5033 108.092L54.2871 107.284C54.6211 106.65 55.1161 106.114 55.7225 105.731C57.9878 104.142 60.0764 102.315 61.9526 100.281L65.0069 96.7695C66.7517 94.9655 68.4964 93.1615 70.2122 91.638C70.609 91.308 70.9285 90.8948 71.148 90.4277C71.3676 89.9606 71.4819 89.451 71.4828 88.9349L72.8416 75.7549C72.9581 75.0788 72.8825 74.3837 72.6234 73.7485L72.3863 73.299L72.6957 73.0475C73.3217 72.2582 74.0137 71.5237 74.7642 70.8517L75.2426 70.3343L76.1707 69.5797C77.2867 68.6457 78.2589 67.5523 79.0559 66.3346L80.2253 64.613C80.8623 63.8278 81.4237 62.9842 81.9021 62.0935C82.2559 61.2213 82.8224 60.4516 83.55 59.8545C83.7688 59.1881 84.0724 58.5526 84.4534 57.9638L84.4823 57.6833C84.5422 57.4775 84.6596 57.2929 84.8206 57.1514L85.3135 56.4937C85.7417 55.3838 86.232 54.299 86.7821 53.2442C87.5439 51.8731 88.1236 50.4085 88.5066 48.8875L88.5356 48.6071L88.6758 48.6215C89.2765 47.7721 89.6687 46.793 89.8206 45.7638C90.0154 45.0592 90.2757 44.3744 90.5983 43.7184L90.6706 43.0173C91.074 42.2444 91.3512 41.4119 91.4916 40.5513C91.5639 39.8503 91.7909 39.0234 91.8776 38.1822C92.0661 37.4514 92.1904 36.7056 92.2491 35.9532C92.4112 35.4581 92.5117 34.945 92.5483 34.4253C92.6822 32.4458 93.0267 30.4862 93.5761 28.5797L93.6629 27.7385C94.3624 23.6667 95.3449 19.6486 96.603 15.7134L97.3128 12.9525L97.3706 12.3916C97.5831 11.705 97.612 11.4246 97.4863 11.2699C97.3605 11.1153 96.9399 11.0719 96.7852 11.1976C94.4967 12.5101 92.0591 13.5433 89.5245 14.2751L86.4354 15.3736L81.7173 17.1545L79.0778 18.016L74.3742 19.6566L72.1553 20.5614C69.7456 21.4666 67.4074 22.5519 65.1606 23.808L63.3479 24.8964L61.9992 25.6076C58.4706 27.2714 55.1266 29.3014 52.0224 31.6642C49.7939 33.4816 47.7361 35.4987 45.8747 37.6904C44.042 39.5499 42.3658 41.5572 40.8631 43.6921C38.9869 46.1446 37.4675 48.8504 36.3502 51.7291C36.2331 52.4149 35.8665 53.0333 35.321 53.4651L35.0406 53.4362L31.1681 53.8872C28.8899 54.0353 26.6277 54.3708 24.4046 54.8903L23.8437 54.8325C23.6231 55.4619 23.2212 56.0121 22.6888 56.4138L21.8865 57.3231L20.548 59.3106C19.6879 60.7807 18.8423 62.1105 17.842 63.5661C16.8417 65.0217 15.2762 67.8361 13.7685 70.0896C12.2609 72.3432 12.0918 72.6091 11.2606 73.7988L8.75263 77.5079C8.414 77.9897 8.25353 78.5744 8.29873 79.1616C8.6871 79.5217 9.13771 79.8082 9.62858 80.0072L10.0492 80.0505C14.6214 75.5623 19.8122 70.571 25.2545 65.8891L25.2834 65.6087L28.9289 65.9845C30.0317 66.2405 31.1623 66.357 32.2941 66.3314L32.9951 66.4037L32.8361 67.9461L34.5432 69.2557C35.1622 69.7191 35.7253 70.2527 36.2214 70.8458L36.8358 71.7593C37.5678 72.775 38.4891 73.6398 39.549 74.3063L41.2272 75.8963L42.0106 76.5439L42.3879 77.0079L43.5775 77.8391L47.7218 80.2502L48.5197 80.7576L50.5651 81.5353L51.827 81.6654L53.3404 82.1048L51.9773 82.9562C51.4144 83.3528 50.7786 83.634 50.1065 83.7836C49.4344 83.9332 48.7394 83.9482 48.0614 83.8278C45.5151 83.3915 43.0641 82.5155 40.8181 81.2389C39.2281 80.1085 37.8386 78.72 36.7071 77.1308C35.2103 74.8182 34.131 72.2609 33.5184 69.5752L33.0197 67.5399L32.6583 71.0452C32.7985 71.0597 32.7841 71.1999 32.9098 71.3546C33.1779 71.7009 33.3696 72.1001 33.4722 72.5259C33.5749 72.9517 33.5862 73.3944 33.5053 73.8249L33.4475 74.3858L31.0639 74.14C29.7699 73.9916 28.4594 74.0971 27.2059 74.4508C26.4052 74.7395 25.6487 75.1385 24.9581 75.6361L24.2137 75.9844C23.0035 76.635 21.9425 77.531 21.0987 78.6153C20.2549 79.6996 19.6468 80.9481 19.3134 82.281C18.9274 84.6502 18.4013 87.0049 17.8751 89.3596L16.8372 93.9288L16.7938 94.3494C17.0112 94.381 17.2329 94.3391 17.4237 94.2305C17.6146 94.1218 17.7638 93.9526 17.8476 93.7496C18.0505 93.0985 18.403 92.504 18.8768 92.0135C19.0459 91.7476 19.2006 91.6218 19.2295 91.3414C19.4527 90.9814 19.7625 90.683 20.1307 90.4734C20.4988 90.2638 20.9135 90.1498 21.3371 90.1416C21.7126 90.1284 22.087 90.1904 22.4383 90.3239C22.7895 90.4575 23.1105 90.6599 23.3824 90.9193C23.9303 91.6918 24.203 92.6258 24.1569 93.5717C24.1108 94.5176 23.7484 95.4206 23.128 96.1361C20.5504 98.9382 17.5809 101.353 14.3119 103.304L14.0025 103.556L11.8372 105.316L6.26908 109.844C4.58861 111.26 3.2056 112.996 2.19998 114.951L2.17107 115.231C1.98832 115.47 1.86273 115.748 1.80391 116.043ZM22.4096 87.9849C23.0936 88.0943 23.7445 88.3551 24.3148 88.7482C24.9594 89.2607 25.4735 89.9187 25.8149 90.6682C26.1564 91.4176 26.3155 92.2373 26.2792 93.0601C26.2069 93.7612 26.2748 94.4767 26.2315 94.8973C25.8946 95.8654 25.3177 96.7323 24.5547 97.4168L24.0762 97.9343C22.1585 100.353 19.7838 102.371 17.0872 103.874L16.947 103.859L16.483 104.237C15.6195 105.067 14.6882 105.824 13.699 106.5L12.6307 107.24C13.6863 106.852 14.691 106.337 15.6229 105.707L15.9033 105.736C17.4007 104.522 19.1944 103.728 21.0999 103.437L22.1103 103.258L25.4075 102.889L26.2488 102.976C27.0479 102.865 27.8606 102.901 28.6469 103.082C29.3406 103.248 30.0606 103.274 30.7645 103.158L31.1852 103.202C31.6442 103.193 32.0934 103.067 32.4896 102.835C32.8857 102.603 33.2155 102.273 33.4474 101.876C34.5623 100.299 35.2844 98.4792 35.5535 96.5669C35.6152 95.861 35.8971 95.1923 36.3592 94.6552C36.8214 94.1181 37.4406 93.7397 38.1294 93.5733C38.9996 93.3796 41.1895 92.7552 42.5584 94.5968C43.3284 95.5162 43.894 96.5889 44.2178 97.7436C44.4655 98.6243 44.5154 99.5488 44.3638 100.451C44.2922 100.92 44.2907 101.398 44.3594 101.868L44.3016 102.428C43.8625 102.743 43.4856 103.137 43.19 103.589C44.1991 103.277 45.0969 102.681 45.776 101.872C49.4635 97.7176 50.3901 92.8535 48.7972 86.3126C44.573 85.7103 40.59 83.9777 37.2694 81.2982C36.6554 81.3743 36.0321 81.31 35.4466 81.1102L32.9228 80.85C32.0546 80.7476 31.1785 80.9588 30.4524 81.4456C31.0053 81.6819 31.5053 82.0265 31.9231 82.4589C32.3409 82.8913 32.668 83.4029 32.8852 83.9636C33.1179 84.5011 33.2324 85.0823 33.2209 85.6679C33.2094 86.2534 33.0722 86.8297 32.8187 87.3577L32.7897 87.6381L32.6495 87.6236C32.3227 87.9198 31.9061 88.098 31.4662 88.1297C31.0263 88.1614 30.5884 88.0448 30.2225 87.7985L29.9421 87.7696C29.7477 87.206 29.6177 86.6221 29.5547 86.0292L29.2208 85.1446C28.7268 84.8268 28.1284 84.7142 27.5527 84.8309L26.5712 84.7297L26.6001 84.4493C26.3058 84.1214 26.1075 83.7186 26.0272 83.2853C25.9469 82.8521 25.9876 82.405 26.1448 81.9934C26.6148 80.7956 27.41 79.753 28.4408 78.983C29.4716 78.213 30.697 77.7462 31.9789 77.6352C32.78 77.4957 33.593 77.4371 34.4059 77.4603C34.1653 77.1802 33.8326 76.9952 33.4677 76.9385L30.0058 76.1565C29.2231 76.0634 28.4296 76.177 27.7045 76.486C26.3812 77.1445 25.1166 77.9148 23.9246 78.7887C23.0629 79.4307 22.3874 80.2903 21.9673 81.2793C21.5915 82.2077 21.3477 83.1842 21.2431 84.1804C21.1853 84.7412 20.9873 85.2876 20.9439 85.7083C20.9005 86.1289 20.717 86.5351 20.5334 86.9413C20.3498 87.3475 20.292 87.9083 20.1084 88.3145L20.2486 88.329C20.9221 88.0129 21.6713 87.8936 22.4096 87.9849ZM36.1304 73.1036C36.5552 74.2478 37.163 75.3155 37.93 76.2649C38.8682 77.7411 40.0836 79.0213 41.509 80.0348C43.6071 81.2963 45.9201 82.1593 48.3318 82.5804L49.173 82.6671L47.8287 81.9617L47.0308 81.4543L42.8721 79.1834L41.431 78.0429L41.0392 77.7191L40.2847 76.7911L38.7178 75.4959C37.7353 74.839 36.8621 74.0317 36.1304 73.1036ZM53.7161 105.95L53.5369 104.939C53.5065 104.507 53.5761 104.074 53.7403 103.673C53.9045 103.272 54.1589 102.915 54.4837 102.628L54.5126 102.348L55.0489 101.269C55.3894 100.541 55.8409 99.8708 56.3874 99.2817C56.5841 98.0886 57.0905 96.9681 57.8561 96.0322C58.0543 95.661 58.2805 95.3053 58.5326 94.9683C59.238 93.624 60.0691 92.4344 60.7745 91.0901C61.1324 90.3486 61.2193 89.5053 61.0203 88.7065C60.8938 87.3357 60.8465 85.9587 60.8787 84.5825L60.7616 81.5946L60.8194 81.0338L61.269 80.7967C63.6904 79.5068 65.9825 77.9874 68.1134 76.2593L70.8686 74.2761L72.0914 73.4103L71.5421 78.7384C71.5378 80.1549 71.3932 81.5571 71.3889 82.9737C71.3845 84.3903 71.1388 86.7739 70.9364 88.7369C70.8723 89.611 70.4848 90.43 69.8494 91.0338L64.939 96.0539L60.8164 100.305L60.0286 101.074C58.5227 102.874 56.6849 104.369 54.6152 105.476L53.7161 105.95ZM62.2895 81.8938L62.4355 84.6013C62.4078 85.9311 62.4599 87.2614 62.5916 88.585C62.7896 89.6781 62.6236 90.8059 62.1189 91.7955C61.4134 93.1398 60.7225 94.3439 59.8769 95.6737C59.6786 96.045 59.4525 96.4006 59.2004 96.7376C58.5131 97.5456 58.0677 98.5311 57.9153 99.5809C57.9043 99.7458 57.8521 99.9052 57.7634 100.045C57.6748 100.184 57.5525 100.299 57.4079 100.379C57.0426 100.818 56.7521 101.315 56.5479 101.849L56.0116 102.927C57.1145 102.067 58.1576 101.133 59.1339 100.132L59.9217 99.3626L63.904 95.097C65.4941 93.4188 67.0986 91.6004 68.8144 90.0768C69.0478 89.8758 69.2344 89.6263 69.3612 89.3457C69.488 89.065 69.552 88.76 69.5487 88.4521C69.7367 86.6293 69.7844 84.7921 69.9868 82.8291C70.1891 80.8661 70.1212 80.1506 70.1255 78.734L70.3713 76.3504L68.9793 77.4822C66.8674 79.1244 64.6307 80.5995 62.2895 81.8938ZM10.0825 78.3535L9.85988 77.7638C9.87433 77.6236 9.65173 77.0338 10.1157 76.6565L10.2559 76.671C10.7778 75.7328 11.1739 74.6401 12.4936 74.2093C12.8994 72.5689 13.6874 71.0478 14.7934 69.7702L17.3158 65.9208L19.8382 62.0715C20.3112 61.5043 20.7091 60.8786 21.0221 60.2097C21.6611 59.1433 22.3817 58.128 23.1774 57.1727C23.9807 56.3151 25.0318 55.7299 26.184 55.4989L27.0542 55.3052L30.772 54.9799C31.7441 54.9613 32.7103 54.8229 33.6485 54.568L34.659 54.3888L34.8816 54.9785C35.1487 56.3396 35.0525 57.7471 34.6026 59.0592C34.3373 59.9672 34.1468 60.8954 34.033 61.8345C33.8823 62.9263 33.5817 63.992 33.1397 65.0016L33.0963 65.4222L31.2735 65.2343C29.6646 65.3024 28.0561 65.0886 26.5207 64.6026C25.9744 64.4046 25.6795 64.5159 25.0608 65.0189L23.345 66.5424L21.7694 68.0804C20.0825 69.3236 18.6615 70.7358 17.1004 72.1336L15.6939 73.4056L14.5823 74.5663C14.3286 74.9353 13.9486 75.1985 13.5141 75.3064C13.0541 76.266 12.332 77.0759 11.4311 77.6423C11.262 77.9083 11.0929 78.1743 10.8125 78.1454L10.0825 78.3535ZM33.6587 55.8444C32.6901 56.1786 31.664 56.3138 30.6419 56.2419C29.5311 56.213 28.4217 56.3371 27.3447 56.6105L26.3343 56.7897C25.512 56.9277 24.7652 57.3528 24.2268 57.9894C23.5155 58.8768 22.8525 59.8018 22.2407 60.7604C21.8967 61.4594 21.4959 62.129 21.0423 62.7625C20.0717 63.9556 19.2264 65.2455 18.5199 66.6118L15.8573 70.4467C15.3535 71.121 14.9013 71.8323 14.5043 72.5745C14.5415 72.5783 14.5787 72.5672 14.6077 72.5436C14.6367 72.52 14.6551 72.4859 14.659 72.4487L16.2201 71.0509C17.6754 69.5877 19.2359 68.2331 20.8891 66.9978L22.31 65.5855C22.8653 64.9629 23.4933 64.4092 24.1805 63.9362C24.5279 63.5697 24.9718 63.3088 25.4611 63.1837C25.9504 63.0587 26.4651 63.0745 26.9457 63.2294C28.4004 63.6416 29.9063 63.8445 31.4181 63.8322L32.1192 63.9045C32.3461 63.0776 32.4184 62.3766 32.6453 61.5497C32.7596 60.4614 33.0127 59.3923 33.3985 58.3682C33.6258 57.5474 33.7137 56.6943 33.6587 55.8444ZM54.4187 82.6411L53.9981 82.5977C53.2354 81.7328 52.1864 81.1718 51.0435 81.0178C50.434 80.9658 49.8606 80.7066 49.4188 80.2835L46.058 78.52C44.7321 77.9031 43.5243 77.0593 42.4891 76.0265C41.9813 75.5153 41.4071 75.0749 40.782 74.7168C38.7683 73.0538 37.0567 71.0557 35.7228 68.8105L35.2342 68.0516L34.4941 66.9834L34.1457 66.2389L34.0055 66.2245C34.1251 64.3845 34.4554 62.5643 34.9899 60.7995L35.7864 57.1974L35.931 55.7952L37.8463 57.8348L40.0275 60.0436C40.3341 60.4898 40.7292 60.8682 41.1882 61.1552C42.4463 62.1141 43.6165 63.1832 44.6849 64.3497L45.2023 64.8282C45.9305 65.5391 46.785 66.1077 47.7218 66.505C48.6098 66.7979 49.4291 67.268 50.13 67.8869L50.4105 67.9158C52.0416 69.0224 53.8061 69.9185 55.6619 70.5828L57.0352 71.0078L57.7073 71.3605L61.8125 72.7756L63.1857 73.2006C64.0792 73.5211 65.0136 73.7129 65.9611 73.7702C66.494 73.7899 67.0139 73.9409 67.4745 74.2096L67.9674 73.5519C67.273 73.2289 66.5187 73.0546 65.7529 73.0402C63.4335 72.6641 61.1695 72.0023 59.0126 71.0699L56.6868 70.2633C54.5253 69.4496 52.4476 68.4287 50.4827 67.2147L47.8086 65.6637C46.8548 65.1159 45.9713 64.4537 45.1778 63.692L44.283 62.7496L43.8913 62.4258L39.737 58.7383C38.5566 57.4098 37.5653 55.9248 36.7911 54.3252L36.82 54.0447C37.583 50.7021 39.0669 47.5665 41.1681 44.8572L41.6465 44.3397L43.1108 42.5068C44.1737 40.8291 45.3799 39.2467 46.7159 37.7772L48.4751 35.833C49.8292 34.4081 51.2916 33.0902 52.8492 31.8911C54.5403 30.5335 56.3251 29.297 58.1903 28.1907L59.5535 27.3393L62.2508 25.917L65.0883 24.5091C66.7973 23.4892 68.7717 23.002 70.759 23.1098L71.3198 23.1677C74.0966 22.8027 76.9089 23.4974 79.1963 25.1133L81.3096 26.6066C82.7826 27.3625 84.1169 28.3625 85.2558 29.5641C87.5369 32.149 89.3417 35.1177 90.5868 38.3325C90.9271 39.3934 90.9088 40.5368 90.5347 41.5863C90.3511 41.9925 90.2933 42.5533 90.1097 42.9595C90.0879 43.3873 89.9966 43.8086 89.8394 44.207C88.4876 48.482 86.7326 52.6188 84.598 56.5616L81.5393 61.4893L80.1863 63.6171C77.529 67.3875 74.3175 70.7349 70.6604 73.5461C70.5202 73.5317 70.3511 73.7977 70.3366 73.9379C69.819 74.4977 69.1337 74.8746 68.3837 75.0119L67.9197 75.3891C64.1823 78.7964 59.6447 81.2044 54.7281 82.3896L54.4187 82.6411ZM51.2025 79.4755C52.5166 79.641 53.7459 80.2137 54.718 81.1132C58.9699 79.9995 62.9136 77.935 66.2516 75.0754L65.9712 75.0465C64.8832 74.9868 63.8081 74.7806 62.7752 74.4336L61.402 74.0086L57.171 72.4388L56.47 72.3665L55.1112 71.8013C53.1254 71.2288 51.2538 70.3167 49.5793 69.1055L49.2989 69.0765C48.7012 68.5707 48.025 68.166 47.2969 67.8782C46.1792 67.3727 45.1492 66.6925 44.2454 65.8632L43.7279 65.3847C42.7115 64.2586 41.5819 63.2399 40.3571 62.3448C39.8614 61.9965 39.4267 61.5686 39.0706 61.0785L36.8893 58.8698C36.6536 59.64 36.4777 60.4272 36.3632 61.2245C35.8542 62.8013 35.5429 64.4352 35.4366 66.0886L35.6736 66.5382L36.288 67.4517L36.9167 68.2251C38.1698 70.2104 39.7648 71.9581 41.6276 73.387L43.4605 74.8513C44.3792 75.7915 45.448 76.5721 46.6232 77.1612C47.8842 77.6018 49.0626 78.2501 50.1097 79.0794C50.436 79.2991 50.8113 79.4351 51.2025 79.4755ZM38.1397 53.614C38.8424 55.0228 39.7613 56.3128 40.863 57.4374C42.104 58.7637 43.4461 59.9918 44.8771 61.1104L45.2689 61.4342L46.1636 62.3766L48.3882 64.1647L51.3428 65.7447C53.1598 66.9178 55.105 67.8791 57.1407 68.6097L59.5923 69.571C61.6197 70.4316 63.748 71.032 65.9264 71.3576C67.1731 71.337 68.3859 71.7637 69.345 72.5603L69.4852 72.5748L69.7945 72.3232C73.0715 69.4019 76.6144 66.6497 79.0111 62.6457L80.3496 60.6581C81.3644 59.0623 82.3791 57.4665 83.2681 55.716C85.4518 51.8989 87.2003 47.8488 88.4807 43.6418C88.6642 43.2356 88.7076 42.815 88.8912 42.4088C88.9168 41.9347 89.0128 41.467 89.176 41.0211C89.5037 40.3101 89.5364 39.4983 89.267 38.7632C88.1574 35.6319 86.4301 32.7553 84.1876 30.3042C83.147 29.2778 81.9403 28.4348 80.6187 27.8107L78.3652 26.303C76.3723 24.8557 73.893 24.2441 71.4557 24.5987L70.7546 24.5264C69.032 24.4852 67.3286 24.8959 65.8139 25.7175L62.9619 27.2656C62.028 27.6044 61.1294 28.0338 60.2791 28.5477L58.916 29.3991L53.7295 32.9738C52.1861 34.1437 50.7673 35.4694 49.4956 36.9301L47.5962 38.8599C46.3157 40.1088 45.1345 41.4557 44.0634 42.8884L42.4445 44.8471L42.4155 45.1275C40.4248 47.6341 38.9695 50.5225 38.1397 53.614ZM91.4758 36.582L90.7068 35.7942C89.8436 34.8167 89.0984 33.7411 88.4865 32.5895L87.6496 31.0862C86.5676 29.3511 85.0546 27.9258 83.2582 26.9492C82.4567 26.479 81.7063 25.9268 81.0191 25.3013L80.4872 24.963C78.6149 23.4752 76.3316 22.5969 73.9448 22.4464L73.6644 22.4175C73.1842 22.4562 72.7029 22.3574 72.2767 22.1327L71.2273 21.316L72.4069 20.8708L76.6899 19.1868L78.4302 18.7994L79.02 18.5768L79.2426 19.1666C80.1051 20.3499 81.2905 21.2593 82.6569 21.7858L83.7497 22.1819L84.0301 22.2108L84.4796 21.9738C83.8935 21.4235 83.2223 20.9715 82.4921 20.6352C81.7206 20.24 81.009 19.7372 80.3788 19.142L79.4696 18.3398L97.0902 12.3627L96.6797 13.5957C95.1853 18.4466 94.0128 23.3908 93.1699 28.3962L93.0976 29.0972L91.5553 28.9382L91.0768 29.4557C91.6253 30.3493 91.9796 31.3483 92.1165 32.3878C92.2535 33.4273 92.1701 34.484 91.8718 35.4892L91.4758 36.582ZM75.6317 21.2033C77.7032 21.6002 79.6517 22.4808 81.3183 23.7734L81.8358 24.2518L83.9491 25.7451C85.9103 26.8399 87.5535 28.4253 88.7178 30.3461C89.1227 30.8455 89.4475 31.4049 89.6805 32.0041L90.7834 33.6765C90.8085 32.2752 90.4067 30.8993 89.6313 29.7318L89.3943 29.2822L89.8872 28.6245C90.1942 28.1771 90.6239 27.8277 91.1246 27.6185L91.8256 27.6907C92.5815 23.2989 93.5971 18.9558 94.867 14.6842L82.2305 19.0495L83.1686 19.5713C84.3618 20.046 85.3684 20.8958 86.0364 21.9926L86.2735 22.4421L85.9497 22.8338C85.7433 23.0723 85.492 23.2678 85.2099 23.4089C84.9279 23.55 84.6208 23.6341 84.3062 23.6563L83.3247 23.5551L82.1061 23.0044C80.6745 22.4408 79.4051 21.5309 78.4114 20.3562L77.2464 20.6612L75.6317 21.2033Z" fill="black"/>
<path d="M44.6188 26.508C44.077 27.7399 43.1801 28.7822 42.0429 29.5017C40.1459 31.2742 38.6641 33.4441 37.7035 35.856C37.2816 36.592 36.9181 37.36 36.6164 38.1529C36.4699 38.4623 36.233 38.72 35.937 38.8919C35.641 39.0637 35.2998 39.1418 34.9584 39.1156C34.1215 37.6123 35.528 36.3403 35.6725 34.9381C35.8171 33.536 34.9137 35.4267 34.2849 34.6534C33.6561 33.88 35.3618 31.0801 36.2363 29.4698C36.5012 29.3617 36.7948 29.3463 37.0695 29.426C37.3443 29.5058 37.584 29.6761 37.7498 29.9093C37.8177 30.6248 37.3392 31.1423 37.2525 31.9835C37.1658 32.8248 38.127 30.3733 38.9004 29.7445C39.6737 29.1157 40.1522 28.5982 40.7998 27.8147L42.2062 26.5427C43.2889 25.6624 43.2889 25.6624 44.6188 26.508Z" fill="black"/>
<path d="M34.4656 39.7733L34.4945 39.4929C34.2546 38.9544 34.1482 38.3661 34.1842 37.7778C34.2202 37.1894 34.3975 36.6185 34.7012 36.1133C34.7157 35.9731 34.8703 35.8473 34.8848 35.7071C34.5199 35.6504 34.1873 35.4654 33.9467 35.1853L33.6662 35.1564C33.5623 34.3496 33.6257 33.5301 33.8525 32.7489C34.0793 31.9677 34.4647 31.2417 34.9846 30.6161C35.269 30.2483 35.5015 29.8431 35.6755 29.412L35.7333 28.8511L36.0138 28.88C36.4027 28.7458 36.8238 28.7365 37.2183 28.8534C37.6128 28.9703 37.9608 29.2075 38.2138 29.532L38.354 29.5464L40.239 27.7569C40.5974 27.2249 41.0802 26.7883 41.6454 26.4849L41.6744 26.2044C43.0519 25.2128 43.3323 25.2418 44.788 26.242L45.1797 26.5658L45.1219 27.1267C44.6014 28.2919 43.762 29.2861 42.7006 29.9945L42.2366 30.3718C40.5444 31.959 39.2299 33.9057 38.3901 36.0685L37.8538 37.1468C37.6038 37.5716 37.4136 38.0288 37.2886 38.5056C37.0431 38.92 36.6903 39.2605 36.2676 39.4912C35.8448 39.7219 35.3676 39.8344 34.8862 39.8167L34.4656 39.7733ZM35.4789 34.0679C35.8003 34.1279 36.0862 34.3097 36.2768 34.5753L36.219 35.1361C36.1753 35.6815 35.9739 36.2023 35.6393 36.6351C35.2866 37.3073 35.0886 37.8537 35.3257 38.3032C35.5627 38.7528 35.7752 38.0662 35.7897 37.926C35.9418 37.439 36.1808 36.9835 36.4951 36.5816L37.0314 35.5033C37.9692 33.0352 39.4584 30.8138 41.3852 29.0087L41.8492 28.6314C42.557 28.1247 43.1913 27.5225 43.7342 26.8419L43.3135 26.7986L42.6949 27.3016L42.4144 27.2727L41.3173 28.2932C40.7412 29.0338 40.053 29.68 39.2777 30.2085C39.1084 30.5501 38.8849 30.8621 38.6156 31.1321C38.3877 31.6075 38.1038 32.0539 37.77 32.462L36.18 34.1402L36.4113 31.8968C36.4546 31.4761 36.6382 31.07 36.6671 30.7895C36.8027 30.5859 36.8765 30.3475 36.8796 30.1029L36.5992 30.074C36.4156 30.4802 36.1063 30.7317 35.9227 31.1379C35.2303 31.9902 34.8246 33.0394 34.7634 34.1359L35.4789 34.0679Z" fill="black"/>
<path d="M76.1953 84.4609C77.9356 84.0735 78.2016 84.2426 78.0426 85.785C77.8836 87.3273 77.58 90.2718 77.2085 92.5008C76.8618 94.0055 76.234 95.4311 75.3582 96.7028C74.8509 97.5007 73.8549 97.5398 73.3765 98.0572C72.898 98.5747 72.7621 97.1437 72.6797 96.5684L73.8347 94.987C74.7109 93.8477 75.2015 92.4589 75.2354 91.022C75.4185 88.8171 75.739 86.6258 76.1953 84.4609Z" fill="black"/>
<path d="M73.5703 98.9275L73.0095 98.8696C72.0569 98.488 72.0034 97.6323 71.921 97.057L71.9933 96.3559L72.3026 96.1044L72.6409 95.5725C72.9779 95.3387 73.2531 95.0267 73.4431 94.6632C74.1511 93.5501 74.5741 92.2796 74.6747 90.9642C74.7403 89.4112 74.9469 87.8673 75.292 86.3517C75.3415 85.6924 75.4563 85.0397 75.6346 84.4031L75.6779 83.9825L75.9584 84.0114C76.3321 83.8166 76.7505 83.7237 77.1716 83.7422C77.5926 83.7608 78.0013 83.89 78.3565 84.1169C78.8739 84.5954 78.8017 85.2965 78.7294 85.9975C78.6571 86.6986 78.2668 90.4843 77.8953 92.7133C77.6944 94.1513 77.1141 95.5099 76.2142 96.6494L75.8615 97.3215C75.5386 97.8091 75.0487 98.1617 74.4839 98.3131L73.8797 98.6759L73.5703 98.9275ZM73.3665 96.7809C73.3521 96.9211 73.3521 96.9211 73.4778 97.0758L73.9274 96.8387C74.2425 96.7116 74.5119 96.4924 74.7007 96.2099L75.039 95.678C75.7903 94.6789 76.2981 93.5182 76.5221 92.2883C76.908 89.9191 77.1393 87.6757 77.3562 85.5725C77.573 83.4693 77.4284 84.8715 77.3027 84.7168C77.1769 84.5621 77.2882 84.857 76.7129 84.9394L76.5539 86.4818C76.2205 87.9038 76.0235 89.3544 75.9656 90.8139C75.8931 92.3801 75.3937 93.8967 74.5215 95.1995C74.2285 95.6157 73.9037 96.0086 73.5501 96.3747C73.5212 96.6551 73.381 96.6407 73.3665 96.7809Z" fill="black"/>
<path d="M80.0644 89.5362C80.8233 89.0476 81.3552 89.3859 81.8727 89.8643C81.9468 91.4265 81.7377 92.9892 81.2555 94.4769C81.2552 94.7364 81.1754 94.9896 81.0268 95.2023C80.8782 95.415 80.6679 95.5771 80.4243 95.6665C79.849 95.7489 79.651 96.2953 79.187 96.6726C78.8718 96.4854 78.642 96.1829 78.5462 95.8291C78.4504 95.4753 78.4962 95.0981 78.6738 94.7776C79.2507 93.4619 79.6329 92.0692 79.8086 90.6434C79.8519 90.2228 80.021 89.9568 80.0644 89.5362Z" fill="black"/>
<path d="M79.3662 97.6831L78.8342 97.3449C78.3569 97.0492 78.007 96.586 77.853 96.046C77.699 95.506 77.752 94.9279 78.0017 94.4249C78.5879 93.2637 78.9577 92.0053 79.093 90.7115C79.1219 90.431 79.3055 90.0249 79.32 89.8847L79.3778 89.3238L79.6582 89.3527C80.0657 89.0839 80.5537 88.9644 81.0393 89.0145C81.5249 89.0645 81.9782 89.2811 82.3223 89.6274L82.6027 89.6563L82.5015 90.6378C82.5201 92.0559 82.3267 93.4688 81.9276 94.8297C81.8821 95.2054 81.7366 95.562 81.5062 95.8623C81.2758 96.1626 80.9691 96.3955 80.618 96.5368C80.4778 96.5224 80.3087 96.7884 79.9993 97.0399C79.9955 97.0767 79.9845 97.1124 79.9669 97.145C79.9493 97.1775 79.9255 97.2063 79.8967 97.2297C79.868 97.253 79.835 97.2705 79.7995 97.2811C79.764 97.2917 79.7268 97.2952 79.69 97.2914L79.3662 97.6831ZM80.7221 90.0292C80.5985 90.2383 80.5257 90.4735 80.5096 90.7158L80.4807 90.9962C80.2553 92.4234 79.8259 93.8108 79.2058 95.1159C79.1644 95.3114 79.1936 95.5152 79.2881 95.6912C79.4953 95.3351 79.8253 95.0668 80.2162 94.9367C80.3564 94.9511 80.511 94.8254 80.5544 94.4047C80.9495 93.0912 81.1382 91.7244 81.1138 90.353L80.6932 90.3096L80.7221 90.0292Z" fill="black"/>
<path d="M75.1679 35.3258C75.145 35.0577 75.1992 34.7887 75.3242 34.5505C75.4492 34.3123 75.6398 34.1149 75.8734 33.9815C76.6918 34.1426 77.456 34.5086 78.0945 35.0453C78.7331 35.582 79.2251 36.2718 79.5247 37.0503C80.0627 38.5047 80.4299 40.0167 80.6189 41.5559C81.0183 44.1116 80.6995 46.728 79.6981 49.113C79.4902 49.9554 79.2157 50.78 78.877 51.579C77.835 53.5452 76.4027 55.2781 74.6677 56.6714C73.8467 57.2378 72.9412 57.6705 71.9848 57.9536C68.8486 59.2021 65.3614 59.2464 62.1945 58.0778C60.6317 57.556 59.3262 56.4587 58.5432 55.009C57.0728 52.4353 56.2986 49.5228 56.2969 46.5586C55.9471 41.7046 58.1602 38.1068 61.4661 34.9051C62.1116 34.2997 62.8846 33.8467 63.7283 33.5795C64.5985 33.3859 64.7387 33.4003 65.3241 34.5943C64.9817 35.2273 64.4298 35.7214 63.763 35.9921C62.6194 36.3795 61.6714 37.1965 61.1191 38.2702C60.1651 39.5924 59.3962 41.0387 58.8338 42.5691C57.7569 46.1423 58.6863 49.4973 60.0364 52.8957C61.3865 56.2941 62.9433 56.3129 65.5929 56.7278C67.3493 56.9755 69.1393 56.8105 70.8209 56.246C72.5025 55.6814 74.0294 54.7328 75.2806 53.4754C75.5819 53.1492 75.8551 52.7982 76.0973 52.426C77.6912 49.5023 78.5621 46.2395 78.6371 42.9103C78.6692 42.2623 78.5412 41.6164 78.2642 41.0297C78.0754 40.6696 77.9711 40.2711 77.9592 39.8647C77.8358 39.0445 77.5455 38.2585 77.1062 37.5551C76.6669 36.8517 76.0879 36.2459 75.405 35.7753C75.2648 35.7609 75.1535 35.466 75.1679 35.3258Z" fill="black"/>
<path d="M65.1633 59.5176C64.0289 59.3984 62.9133 59.1407 61.8416 58.75C60.9981 58.4767 60.218 58.0369 59.5476 57.4567C58.8772 56.8764 58.3301 56.1675 57.9388 55.3719C56.4499 52.6933 55.6405 49.6906 55.5812 46.6266C55.1881 42.1932 57.0239 38.1314 60.9484 34.4266C61.687 33.7283 62.5627 33.1913 63.52 32.8496C64.9655 32.5735 65.3427 33.0375 65.9281 34.2315L65.8559 34.9326C65.3975 35.696 64.686 36.2745 63.8452 36.5674C62.9112 36.9142 62.136 37.5902 61.6653 38.4682L61.6364 38.7487C60.6607 39.9328 59.9402 41.3058 59.5202 42.7816C58.4867 45.9342 59.3048 48.9943 60.626 52.6731C61.9471 56.3519 63.2958 55.6407 65.6649 56.0267C67.3099 56.2022 68.9734 56.0225 70.5429 55.4998C72.1125 54.9772 73.5516 54.1237 74.7629 52.997C75.0588 52.7507 75.2867 52.4327 75.425 52.0733C77.0125 49.2498 77.8752 46.0767 77.9358 42.8381C77.9611 42.3411 77.8664 41.8453 77.6598 41.3926L77.4082 41.0832C77.2604 40.7681 77.1986 40.4195 77.229 40.0728C77.134 39.3331 76.8771 38.6235 76.4766 37.9944C76.0761 37.3653 75.5419 36.8322 74.9119 36.433L74.5346 35.969L74.3944 35.9546L74.4233 35.6742C74.4186 35.2767 74.5128 34.8842 74.6975 34.5322C74.8823 34.1802 75.1516 33.8797 75.4814 33.6577L76.0423 33.7155C76.9518 33.8838 77.8022 34.2848 78.5107 34.8793C79.2192 35.4738 79.7617 36.2417 80.0853 37.1081C80.5846 38.2462 80.9845 39.4253 81.2807 40.6322L81.194 41.4735C81.5789 44.124 81.2511 46.8292 80.2443 49.311C80.0461 50.2035 79.7664 51.0759 79.4088 51.9172C78.5103 53.7737 77.1775 55.3862 75.5232 56.618L75.0448 57.1355C74.2344 57.7616 73.3218 58.2428 72.3475 58.5578L72.067 58.5289C69.8585 59.3305 67.5081 59.6671 65.1633 59.5176ZM64.2311 34.1982L63.9507 34.1693C63.2154 34.3463 62.541 34.7171 61.9978 35.2433C58.228 38.8224 56.7304 42.3523 56.8865 46.336C57 49.2417 57.7731 52.0835 59.1472 54.6462C59.8244 55.9843 60.9842 57.0154 62.3923 57.5315C65.4637 58.5043 68.7755 58.3956 71.7765 57.2236L72.0569 57.2525C72.8063 57.0942 73.5143 56.7811 74.1356 56.3332L74.7542 55.8302C76.2434 54.703 77.421 53.2151 78.1757 51.5067C78.4942 50.7495 78.7636 49.9727 78.9823 49.1809C79.9423 46.8884 80.2977 44.3879 80.0145 41.9187L79.8208 41.0485C79.5853 39.8216 79.2847 38.6081 78.9203 37.4131C78.3407 36.219 77.3164 35.2994 76.0669 34.8517C75.9542 35.0134 75.886 35.2018 75.8688 35.3981C76.643 35.9303 77.2923 36.6244 77.7718 37.4323C78.2512 38.2402 78.5494 39.1426 78.6456 40.0772C78.6311 40.2174 78.7569 40.372 78.7424 40.5123L78.9795 40.9618L78.9506 41.2422C79.2268 41.7796 79.3602 42.3789 79.338 42.9826C79.2728 46.4654 78.3365 49.8764 76.6146 52.9045C76.4168 53.4272 76.075 53.8833 75.6288 54.2199C74.2804 55.4605 72.6767 56.3907 70.9304 56.9451C69.184 57.4995 67.3374 57.6646 65.5204 57.4288C63.1512 57.0429 60.5305 56.3476 59.3062 53.1039C58.0819 49.8602 56.8865 46.336 58.147 42.3566C58.6895 40.7711 59.4645 39.2751 60.4468 37.9175L60.7561 37.666C61.365 36.5505 62.3601 35.6957 63.5546 35.2621C63.9455 35.132 64.2755 34.8637 64.4826 34.5076C64.3569 34.3529 64.3713 34.2127 64.2311 34.1982Z" fill="black"/>
<path d="M70.2226 37.9332C71.4621 38.5436 72.5773 39.3794 73.5111 40.3978C74.1945 41.0955 74.7256 41.9275 75.0704 42.8413C75.4153 43.755 75.5665 44.7304 75.5145 45.7057C75.2623 47.853 74.1972 49.8222 72.5382 51.2087C71.4621 52.0551 70.1843 52.607 68.8305 52.8103C66.0941 53.2367 63.352 50.9701 62.4183 49.0317C62.0371 48.1353 61.8421 47.1708 61.8451 46.1968C61.8481 45.2227 62.049 44.2594 62.4356 43.3654C62.6689 42.5637 62.9862 41.7889 63.3825 41.054C63.8004 40.3634 64.3552 39.7656 65.0127 39.2972C65.6702 38.8289 66.4165 38.5 67.2058 38.3307C68.1744 37.9965 69.2005 37.8613 70.2226 37.9332ZM70.3584 39.3643C68.9497 39.4291 67.5671 39.7679 66.2879 40.3616C65.6978 40.6284 65.2059 41.0732 64.8814 41.6337C64.2477 42.9334 63.8176 44.3228 63.6065 45.7533C63.4827 47.0575 63.8542 48.3605 64.6472 49.4032C65.2829 50.1288 66.1121 50.6582 67.0379 50.9293C67.9636 51.2004 68.9475 51.2021 69.8741 50.934C72.6827 49.8066 73.6295 47.4952 73.9042 44.8312C73.9187 44.691 73.7929 44.5363 73.8074 44.3961C73.3378 42.8257 72.3911 41.4404 71.0985 40.4325C70.772 40.1389 70.5186 39.7731 70.3584 39.3643Z" fill="black"/>
<path d="M67.6215 53.5361C66.3925 53.3612 65.2236 52.8938 64.2129 52.1731C63.2022 51.4524 62.3793 50.4996 61.8135 49.3947C61.3868 48.4113 61.1612 47.3524 61.1501 46.2805C61.1389 45.2085 61.3424 44.1452 61.7485 43.1531C61.9925 42.2905 62.3637 41.4691 62.85 40.716C63.2827 39.9338 63.8759 39.252 64.5906 38.7152C65.3053 38.1784 66.1254 37.7986 66.9971 37.6009C68.0208 37.2984 69.0878 37.1689 70.1541 37.2179L70.5747 37.2613L71.3726 37.7686C72.3386 38.3476 73.2192 39.0584 73.989 39.8805C75.4633 41.4861 76.2607 43.5989 76.215 45.7782C75.9738 48.085 74.8397 50.2058 73.0551 51.6873C71.8594 52.6621 70.4234 53.2971 68.8978 53.526L67.6215 53.5361ZM70.0095 38.62C69.0829 38.6447 68.1633 38.788 67.2732 39.0464C66.595 39.1763 65.9543 39.4555 65.3975 39.8638C64.8407 40.2721 64.3818 40.7992 64.054 41.4069C63.6878 42.055 63.3806 42.7347 63.1361 43.4378C62.3857 45.1411 62.3394 47.0721 63.0075 48.8093C63.8444 50.3126 66.3061 52.5503 68.762 52.0949C70.0166 51.9272 71.199 51.4109 72.1748 50.6047C73.6824 49.3046 74.6322 47.4745 74.8273 45.4934C74.8299 43.7255 74.1403 42.0268 72.9063 40.7608C72.3586 40.1984 71.7428 39.7065 71.0734 39.2965C71.1601 39.5571 71.339 39.7771 71.5764 39.9152C72.9132 41.0279 73.8938 42.5086 74.3966 44.1736C74.5043 44.4044 74.5746 44.6508 74.6047 44.9036C74.3445 47.4275 73.6203 50.3286 70.2364 51.5384C69.1808 51.9207 68.0334 51.9706 66.9486 51.6815C65.8637 51.3923 64.8935 50.7779 64.1682 49.9209C63.6827 49.3359 63.3205 48.6587 63.1033 47.9301C62.8862 47.2016 62.8187 46.4366 62.9049 45.6812C63.0492 44.5414 63.3548 43.4278 63.8126 42.3739L64.3345 41.4358C64.4734 41.0637 64.6857 40.7234 64.9589 40.4351C65.2321 40.1468 65.5605 39.9164 65.9245 39.7576L66.205 39.7865C67.4336 39.1881 68.7704 38.8439 70.1353 38.7747L70.0095 38.62ZM69.865 40.0222C68.7851 40.1269 67.7385 40.4532 66.7904 40.9805L66.51 40.9516C66.119 41.0817 65.7891 41.35 65.5819 41.7061C65.5139 42.0905 65.3799 42.4602 65.1859 42.7989C64.7537 43.712 64.4622 44.6853 64.3214 45.6856C64.2428 46.2577 64.2862 46.84 64.4489 47.3941C64.6116 47.9482 64.8898 48.4616 65.2653 48.9004C65.8019 49.5115 66.5086 49.9486 67.295 50.1559C68.0814 50.3632 68.9118 50.3312 69.6799 50.064C71.744 49.2849 72.899 47.7035 73.217 44.6189L73.0768 44.6044C72.6508 43.2026 71.8495 41.9439 70.7597 40.9646C70.3563 40.7703 70.0381 40.4351 69.865 40.0222Z" fill="black"/>
<path d="M67.5716 33.409C67.4762 33.1193 67.4684 32.8079 67.5492 32.5138C67.6299 32.2196 67.7956 31.9558 68.0255 31.7554C69.7225 31.7886 71.6465 30.9951 73.2568 31.8696C73.2988 32.2156 73.2648 32.5667 73.1572 32.8982C73.0496 33.2298 72.871 33.5338 72.6338 33.7892C70.9656 33.4755 69.2108 34.0031 67.5716 33.409Z" fill="black"/>
<path d="M68.6064 34.3657L66.9239 34.1923L66.9528 33.9118C66.8285 33.4989 66.8252 33.0589 66.9433 32.6441C67.0614 32.2293 67.296 31.8571 67.6192 31.5716L67.6481 31.2912L68.0687 31.3345L69.7802 31.2276C71.0453 30.9531 72.3621 31.0398 73.5804 31.4777L73.8608 31.5066L73.8319 31.787C73.9046 32.1481 73.8977 32.5207 73.8119 32.8789C73.726 33.2371 73.5632 33.5724 73.3347 33.8613C73.3202 34.0015 73.1655 34.1273 73.1511 34.2675L72.8128 34.7994L68.6064 34.3657ZM68.1901 32.9058L72.2563 33.325L72.5946 32.7931C71.7767 32.3805 70.8498 32.2353 69.945 32.3782L68.3737 32.4996C68.3171 32.5513 68.2717 32.6139 68.2401 32.6838C68.2085 32.7536 68.1915 32.8292 68.1901 32.9058Z" fill="black"/>
<path d="M41.9272 44.3687C41.9644 44.3725 41.9986 44.3909 42.0222 44.4199C42.0457 44.4489 42.0568 44.4861 42.053 44.5233L41.9128 44.5089L41.9272 44.3687Z" fill="black"/>
<path d="M41.9802 45.2243C41.6997 45.1954 41.4193 45.1665 41.308 44.8716L40.9452 44.2674L42.0279 43.3871L42.5309 44.0058L42.8113 44.0347L42.6957 45.1564L42.1348 45.0985L41.9802 45.2243ZM41.9267 44.3686L42.5165 44.146L42.3762 44.1315L41.9122 44.5088L42.3762 44.1315L41.8154 44.0737L41.9267 44.3686Z" fill="black"/>
<path d="M28.6934 97.1349C29.0561 96.2239 29.6251 95.4095 30.3557 94.7556C34.9047 93.2407 36.6971 89.5995 37.8319 85.4654C38.1596 85.3057 38.5331 85.2665 38.8868 85.3548C39.2405 85.4431 39.5518 85.6532 39.7659 85.9482L42.0874 88.1714L43.1224 89.1283C43.6832 89.1862 44.5823 88.712 45.0564 89.6111C45.5306 90.5102 45.1345 91.603 43.6023 92.7204C42.07 93.8378 41.0582 89.9074 39.4768 88.7525C37.8955 87.5975 38.9015 88.8349 38.8726 89.1153C38.0113 91.2104 36.653 93.0644 34.9148 94.5171L31.0625 97.5208C30.149 98.1352 29.8686 98.1062 28.6934 97.1349Z" fill="black"/>
<path d="M29.9504 98.6815C29.2732 98.5416 28.6621 98.1793 28.2144 97.6523L27.8226 97.3285L27.866 96.9078C28.2059 96.015 28.7238 95.2006 29.3881 94.5141L29.7119 94.1224L29.9923 94.1513C34.1062 92.7333 35.6862 89.7787 37.0045 85.2384L37.0334 84.958L37.5943 85.0158C38.0523 84.7792 38.5776 84.7067 39.0825 84.8104C39.5875 84.914 40.0418 85.1875 40.3696 85.5853L41.1386 86.3731L42.5509 87.7941L43.3199 88.5819L43.6003 88.6108C43.9907 88.5595 44.3877 88.6182 44.7465 88.7804C45.1053 88.9426 45.4117 89.2017 45.6312 89.5287L45.6023 89.8091C45.835 91.6752 45.637 92.2216 43.8099 93.4503L43.5005 93.7018L43.2201 93.6729C42.0666 93.134 41.0769 92.2985 40.3522 91.2517L39.206 89.9999C38.3095 92.1191 36.9526 94.0122 35.2337 95.5419L31.2412 98.5312C30.8298 98.6865 30.3865 98.7381 29.9504 98.6815ZM29.563 96.9411C30.095 97.2794 30.095 97.2794 30.6992 96.9165L34.537 94.053C36.1028 92.6128 37.3461 90.8576 38.1855 88.9027C38.271 88.6473 38.4356 88.4257 38.6554 88.27C38.8753 88.1143 39.139 88.0327 39.4084 88.0369L39.829 88.0803C40.4906 88.6434 41.0905 89.2753 41.6185 89.9652C42.1497 90.7029 42.8022 91.3452 43.5482 91.8646C44.4762 91.11 44.4907 90.9698 44.4661 89.8337L42.7836 89.6602C42.3101 89.4505 41.9035 89.1144 41.6084 88.6888L40.1962 87.2679L39.2869 86.4656C39.0499 86.0161 38.7695 85.9872 38.4746 86.0985C37.243 89.7975 35.5619 93.7336 30.718 95.3597L30.5778 95.3453L29.563 96.9411Z" fill="black"/>
<path d="M31.8235 91.5059C31.5736 91.6747 31.2832 91.7736 30.9823 91.7924C30.6814 91.8112 30.3809 91.7492 30.112 91.6129C29.9762 90.1818 29.8258 88.891 31.2034 87.8994C32.581 86.9078 32.659 88.8997 31.8235 91.5059Z" fill="black"/>
<path d="M30.727 92.527L29.465 92.3969L29.5084 91.9763C29.2981 91.184 29.3227 90.3476 29.579 89.569C29.8354 88.7904 30.3126 88.103 30.9525 87.5907L31.2618 87.3391L31.6535 87.6629C33.5443 88.5664 33.4575 89.4077 32.622 92.0139L32.5931 92.2943L32.4529 92.2799C32.2033 92.4505 31.9179 92.5615 31.6187 92.6044C31.3194 92.6472 31.0144 92.6208 30.727 92.527ZM30.7313 91.1104L31.1519 91.1538C31.746 89.5146 31.775 89.2342 31.243 88.8959C30.7983 89.5427 30.6155 90.3341 30.7313 91.1104Z" fill="black"/>
<path d="M39.624 68.079C38.391 67.6685 37.5786 67.3013 37.5685 66.0249C37.6602 65.5061 37.8075 64.9987 38.0079 64.5115C38.4185 63.2785 39.4433 62.959 40.3381 63.9015C41.2328 64.844 42.1175 64.5101 42.4225 65.6751L41.8573 67.0339C41.0984 67.5225 40.2571 67.4357 39.624 68.079ZM40.1646 65.5841C40.1791 65.4438 40.1935 65.3036 40.0533 65.2892L39.9131 65.2747L39.8842 65.5551L40.1646 65.5841Z" fill="black"/>
<path d="M39.8325 68.8089L39.4119 68.7655C38.3191 68.3694 36.9603 67.8042 36.8534 66.0928L36.9257 65.3917C37.0948 65.1257 37.1381 64.7051 37.3217 64.2989C37.4237 63.9078 37.623 63.5488 37.901 63.2554C38.179 62.9619 38.5267 62.7436 38.9118 62.6207C39.268 62.5757 39.6299 62.6221 39.9632 62.7556C40.2965 62.8892 40.5903 63.1054 40.8169 63.3839L41.4891 63.7366C42.021 64.0749 42.8334 64.442 43.0126 65.4524L43.1529 65.4669L42.235 67.4978C41.8454 67.8344 41.3841 68.0777 40.8863 68.209L40.0017 68.5429L39.8325 68.8089ZM38.27 66.0971C38.3524 66.6724 38.6039 66.9818 39.4307 67.2087L40.4556 66.8893L41.2 66.5409L41.5816 65.5883L40.9239 65.0954C40.9419 65.3428 40.866 65.588 40.7114 65.782L40.668 66.2026L39.0823 66.4643L39.198 65.3426C39.1994 65.2659 39.2164 65.1904 39.2479 65.1206C39.2795 65.0507 39.325 64.9881 39.3816 64.9364C39.4536 64.8077 39.5642 64.7049 39.6977 64.6425C39.8313 64.58 39.9811 64.5609 40.126 64.588L39.8456 64.5591C39.7198 64.4044 39.4683 64.0951 39.1734 64.2064C38.8785 64.3177 38.7239 64.4435 38.5403 64.8496C38.5239 65.2313 38.4372 65.6067 38.2844 65.9569L38.27 66.0971ZM40.0248 65.5695L39.701 65.9612C39.9814 65.9902 40.4021 66.0335 40.5857 65.6273L40.0248 65.5695ZM39.5073 65.0911L39.4639 65.5117L39.5073 65.0911Z" fill="black"/>
<path d="M46.3661 74.159L45.1909 73.1876C45.1818 72.559 45.1038 71.9332 44.9582 71.3215C45.8183 69.8514 45.8183 69.8514 47.1915 70.2764C48.5647 70.7014 47.0759 71.3981 47.5934 71.8766C48.1108 72.3551 48.3768 72.5242 48.4448 73.2397C48.5127 73.9552 46.7333 73.3467 46.3661 74.159Z" fill="black"/>
<path d="M46.6853 75.1835L46.0131 74.8308C45.4395 74.5276 44.9495 74.0877 44.5864 73.55L44.4462 73.5356C44.4896 73.1149 44.3783 72.8201 44.4072 72.5396C44.4243 72.2796 44.3507 72.0216 44.199 71.8097L44.2713 71.1086C45.2861 69.5128 45.5954 69.2612 47.3748 69.8698L47.7955 69.9132L47.7665 70.1936C47.8518 70.4706 47.8701 70.7639 47.82 71.0493C47.7911 71.3298 47.7767 71.47 47.9169 71.4844C48.0571 71.4989 48.0426 71.6391 48.1684 71.7938C48.5972 72.1954 48.8898 72.721 49.0053 73.2971L48.9764 73.5775L48.8362 73.5631C48.6857 73.8575 48.4451 74.0961 48.1494 74.2441C47.8537 74.392 47.5185 74.4416 47.1927 74.3855L46.772 74.3422L46.6853 75.1835ZM45.7949 72.8244L46.1721 73.2884L47.3372 72.9834L47.6176 73.0123L47.3661 72.703L46.9744 72.3792C46.8121 72.1754 46.6917 71.9414 46.6202 71.6909C46.5488 71.4403 46.5277 71.178 46.5581 70.9192L46.1375 70.8759C46.123 71.0161 45.8137 71.2676 45.6445 71.5336C45.4754 71.7995 45.7125 72.2491 45.8238 72.544L45.7949 72.8244Z" fill="black"/>
<path d="M57.2587 75.7071C56.0214 76.7132 56.0214 76.7132 54.1697 76.8057C52.318 76.8982 53.8647 75.6406 53.6276 75.1911C53.3906 74.7415 54.3186 73.987 55.0197 74.0592C55.9535 74.2931 56.7578 74.8851 57.2587 75.7071Z" fill="black"/>
<path d="M53.9432 77.6324L53.6628 77.6035C53.3009 77.1789 53.0602 76.6646 52.9661 76.1146L53.0095 75.694L52.7579 75.3847L52.7869 75.1042C52.814 74.8341 52.8966 74.5726 53.0294 74.3358C53.1623 74.0991 53.3425 73.8923 53.5589 73.7285C53.7753 73.5646 54.0232 73.4471 54.2871 73.3834C54.5509 73.3196 54.8251 73.311 55.0924 73.3581C56.2342 73.6456 57.2244 74.3553 57.8634 75.3442L58.1005 75.7938L57.7767 76.1855C56.3702 77.4575 56.23 77.4431 54.2381 77.5211L53.9432 77.6324ZM54.3437 75.123C54.3147 75.4035 54.4405 75.5581 54.426 75.6983C54.4116 75.8386 54.5373 75.9932 54.5229 76.1334C55.1546 76.197 55.7858 76.0072 56.2777 75.6058C55.9107 75.2189 55.454 74.9284 54.9479 74.7602C54.6674 74.7313 54.5128 74.8571 54.3437 75.123Z" fill="black"/>
<path d="M88.0827 26.8796C88.2663 26.4734 88.4354 26.2075 88.8705 26.1106C89.0203 26.1574 89.1569 26.2392 89.2688 26.3493C89.3806 26.4594 89.4646 26.5946 89.5137 26.7437C89.4234 27.0961 89.2437 27.4193 88.9919 27.6819C88.7727 27.6684 88.5642 27.5822 88.3995 27.4369C88.2348 27.2916 88.1233 27.0955 88.0827 26.8796Z" fill="black"/>
<path d="M88.7795 28.3687C88.4597 28.3184 88.1637 28.1692 87.933 27.9421C87.7023 27.715 87.5484 27.4214 87.493 27.1025L87.5219 26.8221C87.7055 26.4159 88.0727 25.6035 88.9284 25.55L89.0686 25.5645C89.3452 25.626 89.5996 25.7622 89.8043 25.9581C90.0089 26.1541 90.1559 26.4024 90.2294 26.6761C90.189 27.0891 89.9981 27.4729 89.6931 27.7544L89.6642 28.0348L89.3548 28.2864L88.794 28.2285L88.7795 28.3687Z" fill="black"/>
<path d="M86.4047 25.2897C86.0274 24.8257 86.211 24.4195 85.9595 24.1102C85.708 23.8008 86.9844 23.7907 87.5987 24.7043C88.213 25.6178 86.714 25.0382 86.4047 25.2897Z" fill="black"/>
<path d="M86.3185 26.131L85.9412 25.667C85.4093 25.3288 85.4527 24.9081 85.3414 24.6132L84.993 23.8688L85.7374 23.5205C86.9314 22.935 87.3376 23.1186 88.2179 24.2013L88.1456 24.9024C88.0322 25.1663 87.8409 25.3892 87.5973 25.5414C87.3537 25.6935 87.0694 25.7676 86.7825 25.7538L86.6423 25.7393L86.3185 26.131Z" fill="black"/>
</svg>
