<svg width="63" height="146" viewBox="0 0 63 146" fill="none" xmlns="http://www.w3.org/2000/svg">
<g clip-path="url(#clip0_123_561)">
<path d="M6.97961 83.4957C6.97961 85.4309 5.42099 86.9955 3.49322 86.9955C1.56546 86.9955 0 85.4309 0 83.4957C0 81.5605 1.55862 79.9958 3.48638 79.9958C5.41415 79.9958 6.97961 81.5605 6.97961 83.4957Z" fill="#0183CC"/>
<path d="M25.1089 86.9955C27.0344 86.9955 28.5953 85.4286 28.5953 83.4957C28.5953 81.5628 27.0344 79.9958 25.1089 79.9958C23.1835 79.9958 21.6226 81.5628 21.6226 83.4957C21.6226 85.4286 23.1835 86.9955 25.1089 86.9955Z" fill="#0183CC"/>
<path d="M46.731 86.9955C48.6565 86.9955 50.2174 85.4286 50.2174 83.4957C50.2174 81.5628 48.6565 79.9958 46.731 79.9958C44.8055 79.9958 43.2446 81.5628 43.2446 83.4957C43.2446 85.4286 44.8055 86.9955 46.731 86.9955Z" fill="#0183CC"/>
<path d="M6.97961 102.93C6.97961 104.865 5.42099 106.43 3.49322 106.43C1.56546 106.43 0 104.865 0 102.93C0 100.995 1.55862 99.4302 3.48638 99.4302C5.41415 99.4302 6.97961 100.995 6.97961 102.93Z" fill="#0183CC"/>
<path d="M25.1089 106.43C27.0344 106.43 28.5953 104.863 28.5953 102.93C28.5953 100.997 27.0344 99.4302 25.1089 99.4302C23.1835 99.4302 21.6226 100.997 21.6226 102.93C21.6226 104.863 23.1835 106.43 25.1089 106.43Z" fill="#0183CC"/>
<path d="M46.731 106.43C48.6565 106.43 50.2174 104.863 50.2174 102.93C50.2174 100.997 48.6565 99.4302 46.731 99.4302C44.8055 99.4302 43.2446 100.997 43.2446 102.93C43.2446 104.863 44.8055 106.43 46.731 106.43Z" fill="#0183CC"/>
<path d="M6.97961 122.365C6.97961 124.3 5.42099 125.864 3.49322 125.864C1.56546 125.864 0 124.3 0 122.365C0 120.429 1.55862 118.865 3.48638 118.865C5.41415 118.865 6.97961 120.429 6.97961 122.365Z" fill="#0183CC"/>
<path d="M25.1089 125.864C27.0344 125.864 28.5953 124.297 28.5953 122.365C28.5953 120.432 27.0344 118.865 25.1089 118.865C23.1835 118.865 21.6226 120.432 21.6226 122.365C21.6226 124.297 23.1835 125.864 25.1089 125.864Z" fill="#0183CC"/>
<path d="M46.731 125.864C48.6565 125.864 50.2174 124.297 50.2174 122.365C50.2174 120.432 48.6565 118.865 46.731 118.865C44.8055 118.865 43.2446 120.432 43.2446 122.365C43.2446 124.297 44.8055 125.864 46.731 125.864Z" fill="#0183CC"/>
<path d="M6.97961 141.799C6.97961 143.734 5.42099 145.299 3.49322 145.299C1.56546 145.299 0 143.727 0 141.799C0 139.871 1.55862 138.299 3.48638 138.299C5.41415 138.299 6.97961 139.864 6.97961 141.799Z" fill="#0183CC"/>
<path d="M25.1089 145.299C27.0344 145.299 28.5953 143.732 28.5953 141.799C28.5953 139.866 27.0344 138.299 25.1089 138.299C23.1835 138.299 21.6226 139.866 21.6226 141.799C21.6226 143.732 23.1835 145.299 25.1089 145.299Z" fill="#0183CC"/>
<path d="M46.731 145.299C48.6565 145.299 50.2174 143.732 50.2174 141.799C50.2174 139.866 48.6565 138.299 46.731 138.299C44.8055 138.299 43.2446 139.866 43.2446 141.799C43.2446 143.732 44.8055 145.299 46.731 145.299Z" fill="#0183CC"/>
</g>
<g clip-path="url(#clip1_123_561)">
<path d="M6.97961 3.49984C6.97961 5.43505 5.42099 6.99968 3.49322 6.99968C1.56546 6.99968 0 5.43505 0 3.49984C0 1.56463 1.55862 0 3.48638 0C5.41415 0 6.97961 1.56463 6.97961 3.49984Z" fill="#0183CC"/>
<path d="M25.1089 6.99968C27.0344 6.99968 28.5953 5.43275 28.5953 3.49984C28.5953 1.56693 27.0344 0 25.1089 0C23.1835 0 21.6226 1.56693 21.6226 3.49984C21.6226 5.43275 23.1835 6.99968 25.1089 6.99968Z" fill="#0183CC"/>
<path d="M46.731 6.99968C48.6565 6.99968 50.2174 5.43275 50.2174 3.49984C50.2174 1.56693 48.6565 0 46.731 0C44.8055 0 43.2446 1.56693 43.2446 3.49984C43.2446 5.43275 44.8055 6.99968 46.731 6.99968Z" fill="#0183CC"/>
<path d="M6.97961 22.9342C6.97961 24.8694 5.42099 26.434 3.49322 26.434C1.56546 26.434 0 24.8694 0 22.9342C0 20.999 1.55862 19.4343 3.48638 19.4343C5.41415 19.4343 6.97961 20.999 6.97961 22.9342Z" fill="#0183CC"/>
<path d="M25.1089 26.434C27.0344 26.434 28.5953 24.8671 28.5953 22.9342C28.5953 21.0013 27.0344 19.4343 25.1089 19.4343C23.1835 19.4343 21.6226 21.0013 21.6226 22.9342C21.6226 24.8671 23.1835 26.434 25.1089 26.434Z" fill="#0183CC"/>
<path d="M46.731 26.434C48.6565 26.434 50.2174 24.8671 50.2174 22.9342C50.2174 21.0013 48.6565 19.4343 46.731 19.4343C44.8055 19.4343 43.2446 21.0013 43.2446 22.9342C43.2446 24.8671 44.8055 26.434 46.731 26.434Z" fill="#0183CC"/>
<path d="M6.97961 42.3687C6.97961 44.3039 5.42099 45.8686 3.49322 45.8686C1.56546 45.8686 0 44.3039 0 42.3687C0 40.4335 1.55862 38.8689 3.48638 38.8689C5.41415 38.8689 6.97961 40.4335 6.97961 42.3687Z" fill="#0183CC"/>
<path d="M25.1089 45.8686C27.0344 45.8686 28.5953 44.3016 28.5953 42.3687C28.5953 40.4358 27.0344 38.8689 25.1089 38.8689C23.1835 38.8689 21.6226 40.4358 21.6226 42.3687C21.6226 44.3016 23.1835 45.8686 25.1089 45.8686Z" fill="#0183CC"/>
<path d="M46.731 45.8686C48.6565 45.8686 50.2174 44.3016 50.2174 42.3687C50.2174 40.4358 48.6565 38.8689 46.731 38.8689C44.8055 38.8689 43.2446 40.4358 43.2446 42.3687C43.2446 44.3016 44.8055 45.8686 46.731 45.8686Z" fill="#0183CC"/>
<path d="M6.97961 61.8031C6.97961 63.7383 5.42099 65.3029 3.49322 65.3029C1.56546 65.3029 0 63.7314 0 61.8031C0 59.8747 1.55862 58.3032 3.48638 58.3032C5.41415 58.3032 6.97961 59.8679 6.97961 61.8031Z" fill="#0183CC"/>
<path d="M25.1089 65.3029C27.0344 65.3029 28.5953 63.736 28.5953 61.8031C28.5953 59.8702 27.0344 58.3032 25.1089 58.3032C23.1835 58.3032 21.6226 59.8702 21.6226 61.8031C21.6226 63.736 23.1835 65.3029 25.1089 65.3029Z" fill="#0183CC"/>
<path d="M46.731 65.3029C48.6565 65.3029 50.2174 63.736 50.2174 61.8031C50.2174 59.8702 48.6565 58.3032 46.731 58.3032C44.8055 58.3032 43.2446 59.8702 43.2446 61.8031C43.2446 63.736 44.8055 65.3029 46.731 65.3029Z" fill="#0183CC"/>
</g>
<defs>
<clipPath id="clip0_123_561">
<rect width="71.8332" height="65.3029" fill="white" transform="translate(0 79.9958)"/>
</clipPath>
<clipPath id="clip1_123_561">
<rect width="71.8332" height="65.3029" fill="white"/>
</clipPath>
</defs>
</svg>
